 0
SECTION
 2
ENTITIES
  0
LINE
 8
Floor Strut
10
4.445
20
0.0
30
0.0
11
4.445
21
3.81
31
0.0
  0
LINE
 8
Floor Strut
10
4.445
20
3.81
30
0.0
11
4.445
21
3.81
31
8.89
  0
LINE
 8
Floor Strut
10
4.445
20
3.81
30
8.89
11
239.395
21
3.81
31
8.89
  0
LINE
 8
Floor Strut
10
239.395
20
3.81
30
0.0
11
239.395
21
3.81
31
8.89
  0
LINE
 8
Floor Strut
10
4.445
20
3.81
30
0.0
11
239.395
21
3.81
31
0.0
  0
LINE
 8
Floor Strut
10
4.445
20
3.81
30
8.89
11
4.445
21
0.0
31
8.89
  0
LINE
 8
Floor Strut
10
4.445
20
0.0
30
8.89
11
239.395
21
0.0
31
8.89
  0
LINE
 8
Floor Strut
10
239.395
20
3.81
30
8.89
11
239.395
21
0.0
31
8.89
  0
LINE
 8
Floor Strut
10
239.395
20
0.0
30
0.0
11
239.395
21
3.81
31
0.0
  0
LINE
 8
Floor Strut
10
4.445
20
0.0
30
0.0
11
239.395
21
0.0
31
0.0
  0
LINE
 8
Floor Strut
10
239.395
20
0.0
30
8.89
11
239.395
21
0.0
31
0.0
  0
LINE
 8
Floor Strut
10
4.445
20
0.0
30
8.89
11
4.445
21
0.0
31
0.0
  0
LINE
 8
4x8' Subfloor piece
10
14.605
20
121.92
30
8.89
11
14.605
21
107.315
31
8.89
  0
LINE
 8
4x8' Subfloor piece
10
243.84
20
107.315
30
8.89
11
243.84
21
107.315
31
10.795
  0
LINE
 8
4x8' Subfloor piece
10
14.605
20
107.315
30
8.89
11
14.605
21
107.315
31
10.795
  0
LINE
 8
4x8' Subfloor piece
10
229.235
20
121.92
30
8.89
11
14.605
21
121.92
31
8.89
  0
LINE
 8
4x8' Subfloor piece
10
229.235
20
121.92
30
8.89
11
229.235
21
121.92
31
10.795
  0
LINE
 8
4x8' Subfloor piece
10
229.235
20
121.92
30
10.795
11
14.605
21
121.92
31
10.795
  0
LINE
 8
4x8' Subfloor piece
10
14.605
20
121.92
30
8.89
11
14.605
21
121.92
31
10.795
  0
LINE
 8
4x8' Subfloor piece
10
0.0
20
107.315
30
8.89
11
14.605
21
107.315
31
8.89
  0
LINE
 8
4x8' Subfloor piece
10
229.235
20
107.315
30
8.89
11
243.84
21
107.315
31
8.89
  0
LINE
 8
4x8' Subfloor piece
10
0.0
20
0.0
30
8.89
11
243.84
21
0.0
31
8.89
  0
LINE
 8
4x8' Subfloor piece
10
0.0
20
0.0
30
8.89
11
0.0
21
0.0
31
10.795
  0
LINE
 8
4x8' Subfloor piece
10
0.0
20
0.0
30
10.795
11
243.84
21
0.0
31
10.795
  0
LINE
 8
4x8' Subfloor piece
10
243.84
20
0.0
30
8.89
11
243.84
21
0.0
31
10.795
  0
LINE
 8
4x8' Subfloor piece
10
243.84
20
0.0
30
8.89
11
243.84
21
107.315
31
8.89
  0
LINE
 8
4x8' Subfloor piece
10
229.235
20
121.92
30
8.89
11
229.235
21
107.315
31
8.89
  0
LINE
 8
4x8' Subfloor piece
10
0.0
20
107.315
30
8.89
11
0.0
21
0.0
31
8.89
  0
LINE
 8
4x8' Subfloor piece
10
14.605
20
121.92
30
10.795
11
14.605
21
107.315
31
10.795
  0
LINE
 8
4x8' Subfloor piece
10
229.235
20
107.315
30
8.89
11
229.235
21
107.315
31
10.795
  0
LINE
 8
4x8' Subfloor piece
10
243.84
20
0.0
30
10.795
11
243.84
21
107.315
31
10.795
  0
LINE
 8
4x8' Subfloor piece
10
229.235
20
121.92
30
10.795
11
229.235
21
107.315
31
10.795
  0
LINE
 8
4x8' Subfloor piece
10
0.0
20
107.315
30
10.795
11
14.605
21
107.315
31
10.795
  0
LINE
 8
4x8' Subfloor piece
10
0.0
20
107.315
30
10.795
11
0.0
21
0.0
31
10.795
  0
LINE
 8
4x8' Subfloor piece
10
229.235
20
107.315
30
10.795
11
243.84
21
107.315
31
10.795
  0
LINE
 8
4x8' Subfloor piece
10
0.0
20
107.315
30
8.89
11
0.0
21
107.315
31
10.795
  0
LINE
 8
Floor Strut
10
4.445000000000018
20
57.15
30
0.0
11
4.445000000000018
21
60.96
31
0.0
  0
LINE
 8
Floor Strut
10
4.445000000000018
20
60.96
30
0.0
11
4.445000000000018
21
60.96
31
8.89
  0
LINE
 8
Floor Strut
10
4.445000000000018
20
60.96
30
8.89
11
239.395
21
60.96
31
8.89
  0
LINE
 8
Floor Strut
10
239.395
20
60.96
30
0.0
11
239.395
21
60.96
31
8.89
  0
LINE
 8
Floor Strut
10
4.445000000000018
20
60.96
30
0.0
11
239.395
21
60.96
31
0.0
  0
LINE
 8
Floor Strut
10
4.445000000000018
20
60.96
30
8.89
11
4.445000000000018
21
57.15
31
8.89
  0
LINE
 8
Floor Strut
10
4.445000000000018
20
57.15
30
8.89
11
239.395
21
57.15
31
8.89
  0
LINE
 8
Floor Strut
10
239.395
20
60.96
30
8.89
11
239.395
21
57.15
31
8.89
  0
LINE
 8
Floor Strut
10
239.395
20
57.15
30
0.0
11
239.395
21
60.96
31
0.0
  0
LINE
 8
Floor Strut
10
4.445000000000018
20
57.15
30
0.0
11
239.395
21
57.15
31
0.0
  0
LINE
 8
Floor Strut
10
239.395
20
57.15
30
8.89
11
239.395
21
57.15
31
0.0
  0
LINE
 8
Floor Strut
10
4.445000000000018
20
57.15
30
8.89
11
4.445000000000018
21
57.15
31
0.0
 0
ENDSEC
 0
EOF
