 0
SECTION
 2
ENTITIES
  0
LINE
 8
Layer0
10
21.589999999999982
20
25.717499999999973
30
7.908791841289795e-15
11
19.68499999999998
21
25.717499999999973
31
3.3968454692131594e-15
  0
LINE
 8
Layer0
10
10.795
20
25.717499999999976
30
-1.0009087014283247e-17
11
8.89
21
25.717499999999976
31
-1.0009087014283247e-17
  0
LINE
 8
Layer0
10
11.101681449846778
20
25.317824953179926
30
-1.0009087014283247e-17
11
11.1125
21
25.399999999999977
31
-1.0009087014283247e-17
  0
LINE
 8
Layer0
10
11.1125
20
25.399999999999977
30
-1.0009087014283247e-17
11
11.101681449846778
21
25.48217504682003
31
-1.0009087014283247e-17
  0
LINE
 8
Layer0
10
11.101681449846778
20
25.48217504682003
30
-1.0009087014283247e-17
11
11.06996306570156
21
25.55874999999998
31
-1.0009087014283247e-17
  0
LINE
 8
Layer0
10
10.95375
20
25.674963065701537
30
-1.0009087014283247e-17
11
10.87717504682005
21
25.706681449846755
31
-1.0009087014283247e-17
  0
LINE
 8
Layer0
10
10.87717504682005
20
25.706681449846755
30
-1.0009087014283247e-17
11
10.795
21
25.717499999999976
31
-1.0009087014283247e-17
  0
LINE
 8
Layer0
10
8.89
20
25.717499999999976
30
-1.0009087014283247e-17
11
8.80782495317995
21
25.706681449846755
31
-6.539487405397981e-17
  0
LINE
 8
Layer0
10
8.80782495317995
20
25.706681449846755
30
-6.539487405397981e-17
11
8.73125
21
25.674963065701537
31
-6.413395463630671e-17
  0
LINE
 8
Layer0
10
8.73125
20
25.674963065701537
30
-6.413395463630671e-17
11
8.665493596973272
21
25.624506403026707
31
-6.65937122589729e-17
  0
LINE
 8
Layer0
10
8.665493596973272
20
25.624506403026707
30
-6.65937122589729e-17
11
8.615036934298441
21
25.55874999999998
31
-7.260651850493407e-17
  0
LINE
 8
Layer0
10
8.583318550153221
20
25.48217504682003
30
-8.176261056516194e-17
11
8.5725
21
25.399999999999977
31
-9.343801589690924e-17
  0
LINE
 8
Layer0
10
8.583318550153221
20
25.317824953179926
30
-1.0683707492133549e-16
11
8.615036934298441
21
25.24124999999998
31
-1.2104666390891968e-16
  0
LINE
 8
Layer0
10
8.615036934298441
20
25.24124999999998
30
-1.2104666390891968e-16
11
8.665493596973272
21
25.175493596973247
31
-1.3509842285261358e-16
  0
LINE
 8
Layer0
10
8.665493596973272
20
25.175493596973247
30
-1.3509842285261358e-16
11
8.73125
21
25.12503693429842
31
-1.48034747602034e-16
  0
LINE
 8
Layer0
10
19.68499999999998
20
25.717499999999973
30
3.3968454692131594e-15
11
19.602824953179933
21
25.70668144984675
31
3.5055670685403056e-15
  0
LINE
 8
Layer0
10
19.602824953179933
20
25.70668144984675
30
3.5055670685403056e-15
11
19.526249999999983
21
25.67496306570153
31
3.5055670685403056e-15
  0
LINE
 8
Layer0
10
19.526249999999983
20
25.67496306570153
30
3.5055670685403056e-15
11
19.460493596973254
21
25.624506403026704
31
3.5055670685403056e-15
  0
LINE
 8
Layer0
10
19.460493596973254
20
25.624506403026704
30
3.5055670685403056e-15
11
19.410036934298425
21
25.55874999999998
31
3.5055670685403056e-15
  0
LINE
 8
Layer0
10
19.410036934298425
20
25.55874999999998
30
3.5055670685403056e-15
11
19.378318550153207
21
25.482175046820025
31
3.5055670685403056e-15
  0
LINE
 8
Layer0
10
19.378318550153207
20
25.482175046820025
30
3.5055670685403056e-15
11
19.367499999999986
21
25.399999999999977
31
3.5055670685403056e-15
  0
LINE
 8
Layer0
10
19.367499999999986
20
25.399999999999977
30
3.5055670685403056e-15
11
19.378318550153207
21
25.31782495317993
31
3.5055670685403056e-15
  0
LINE
 8
Layer0
10
19.378318550153207
20
25.31782495317993
30
3.5055670685403056e-15
11
19.410036934298425
21
25.241249999999983
31
3.5055670685403056e-15
  0
LINE
 8
Layer0
10
19.410036934298425
20
25.241249999999983
30
3.5055670685403056e-15
11
19.460493596973254
21
25.17549359697325
31
3.5055670685403056e-15
  0
LINE
 8
Layer0
10
19.460493596973254
20
25.17549359697325
30
3.5055670685403056e-15
11
19.526249999999983
21
25.125036934298425
31
3.5055670685403056e-15
  0
LINE
 8
Layer0
10
19.526249999999983
20
25.125036934298425
30
3.5055670685403056e-15
11
19.602824953179933
21
25.093318550153203
31
3.5055670685403056e-15
  0
LINE
 8
Layer0
10
19.602824953179933
20
25.093318550153203
30
3.5055670685403056e-15
11
19.68499999999998
21
25.082499999999982
31
3.5055670685403056e-15
  0
LINE
 8
Layer0
10
21.589999999999982
20
25.082499999999982
30
7.941437370838309e-15
11
21.67217504682003
21
25.093318550153203
31
7.920757127596029e-15
  0
LINE
 8
Layer0
10
21.67217504682003
20
25.093318550153203
30
7.920757127596029e-15
11
21.748749999999976
21
25.125036934298425
31
7.902966068527152e-15
  0
LINE
 8
Layer0
10
21.748749999999976
20
25.125036934298425
30
7.902966068527152e-15
11
21.81450640302671
21
25.17549359697325
31
7.889276624906107e-15
  0
LINE
 8
Layer0
10
21.81450640302671
20
25.17549359697325
30
7.889276624906107e-15
11
21.864963065701534
21
25.24124999999998
31
7.880621709692797e-15
  0
LINE
 8
Layer0
10
21.864963065701534
20
25.24124999999998
30
7.880621709692797e-15
11
21.896681449846756
21
25.31782495317993
31
7.877591141056081e-15
  0
LINE
 8
Layer0
10
21.907499999999978
20
25.399999999999977
30
7.8803914472403e-15
11
21.896681449846756
21
25.482175046820025
31
7.888831792006725e-15
  0
LINE
 8
Layer0
10
4.7625
20
21.589999999999982
30
1.081905148705937e-16
11
4.751681449846779
21
21.672175046820033
31
7.391084987646994e-16
  0
LINE
 8
Layer0
10
4.751681449846779
20
21.672175046820033
30
7.391084987646994e-16
11
4.71996306570156
21
21.748749999999983
31
7.529728692451315e-16
  0
LINE
 8
Layer0
10
4.71996306570156
20
21.748749999999983
30
7.529728692451315e-16
11
4.669506403026729
21
21.814506403026712
31
7.702012630455597e-16
  0
LINE
 8
Layer0
10
4.669506403026729
20
21.814506403026712
30
7.702012630455597e-16
11
4.60375
21
21.86496306570154
31
7.896195935997517e-16
  0
LINE
 8
Layer0
10
4.60375
20
21.86496306570154
30
7.896195935997517e-16
11
4.527175046820051
21
21.89668144984676
31
8.09904533770748e-16
  0
LINE
 8
Layer0
10
4.527175046820051
20
21.89668144984676
30
8.09904533770748e-16
11
4.445
21
21.90749999999998
31
8.296736984083437e-16
  0
LINE
 8
Layer0
10
4.445
20
21.90749999999998
30
8.296736984083437e-16
11
4.36282495317995
21
21.89668144984676
31
8.47579851612576e-16
  0
LINE
 8
Layer0
10
4.36282495317995
20
21.89668144984676
30
8.47579851612576e-16
11
4.28625
21
21.86496306570154
31
8.624027186338937e-16
  0
LINE
 8
Layer0
10
4.28625
20
21.86496306570154
30
8.624027186338937e-16
11
4.220493596973271
21
21.814506403026712
31
8.7313214558074e-16
  0
LINE
 8
Layer0
10
4.220493596973271
20
21.814506403026712
30
8.7313214558074e-16
11
4.170036934298441
21
21.748749999999983
31
8.790369397379037e-16
  0
LINE
 8
Layer0
10
4.170036934298441
20
21.748749999999983
30
8.790369397379037e-16
11
4.138318550153221
21
21.672175046820033
31
8.797146991417077e-16
  0
LINE
 8
Layer0
10
4.138318550153221
20
21.672175046820033
30
8.797146991417077e-16
11
4.1275
21
21.589999999999982
31
8.751192356088333e-16
  0
LINE
 8
Layer0
10
26.35249999999998
20
10.794999999999991
30
6.017297446365575e-15
11
26.34168144984676
21
10.87717504682004
31
6.0269396756325396e-15
  0
LINE
 8
Layer0
10
26.34168144984676
20
10.87717504682004
30
6.0269396756325396e-15
11
26.30996306570154
21
10.95374999999999
31
6.037868126374539e-15
  0
LINE
 8
Layer0
10
26.30996306570154
20
10.95374999999999
30
6.037868126374539e-15
11
26.259506403026712
21
11.01950640302672
31
6.049338042733625e-15
  0
LINE
 8
Layer0
10
26.259506403026712
20
11.01950640302672
30
6.049338042733625e-15
11
26.193749999999984
21
11.06996306570155
31
6.060567768864857e-15
  0
LINE
 8
Layer0
10
26.193749999999984
20
11.06996306570155
30
6.060567768864857e-15
11
26.117175046820034
21
11.101681449846769
31
6.070792017490393e-15
  0
LINE
 8
Layer0
10
26.117175046820034
20
11.101681449846769
30
6.070792017490393e-15
11
26.034999999999982
21
11.112499999999992
31
6.079314022962772e-15
  0
LINE
 8
Layer0
10
26.034999999999982
20
11.112499999999992
30
6.079314022962772e-15
11
25.95282495317993
21
11.101681449846769
31
6.0855530246923315e-15
  0
LINE
 8
Layer0
10
25.95282495317993
20
11.101681449846769
30
6.0855530246923315e-15
11
25.87624999999998
21
11.06996306570155
31
6.08908384502164e-15
  0
LINE
 8
Layer0
10
25.810493596973252
20
11.01950640302672
30
6.089665864380212e-15
11
25.760036934298423
21
10.95374999999999
31
6.087259419110592e-15
  0
LINE
 8
Layer0
10
25.760036934298423
20
10.95374999999999
30
6.087259419110592e-15
11
25.728318550153205
21
10.87717504682004
31
6.082028504481066e-15
  0
LINE
 8
Layer0
10
25.728318550153205
20
10.87717504682004
30
6.082028504481066e-15
11
25.717499999999983
21
10.794999999999991
31
5.351667926818261e-15
  0
LINE
 8
Layer0
10
25.87624999999998
20
11.06996306570155
30
6.08908384502164e-15
11
25.810493596973252
21
11.01950640302672
31
6.089665864380212e-15
  0
LINE
 8
Layer0
10
11.019506403026728
20
25.175493596973247
30
-1.0009087014283247e-17
11
11.06996306570156
21
25.24124999999998
31
-1.0009087014283247e-17
  0
LINE
 8
Layer0
10
11.06996306570156
20
25.24124999999998
30
-1.0009087014283247e-17
11
11.101681449846778
21
25.317824953179926
31
-1.0009087014283247e-17
  0
LINE
 8
Layer0
10
4.7625
20
21.589999999999982
30
1.081905148705937e-16
11
4.7625
21
19.68499999999999
31
1.081905148705937e-16
  0
LINE
 8
Layer0
10
10.795
20
25.08249999999998
30
-1.0009087014283247e-17
11
10.87717504682005
21
25.0933185501532
31
-1.0009087014283247e-17
  0
LINE
 8
Layer0
10
10.87717504682005
20
25.0933185501532
30
-1.0009087014283247e-17
11
10.95375
21
25.12503693429842
31
-1.0009087014283247e-17
  0
LINE
 8
Layer0
10
10.95375
20
25.12503693429842
30
-1.0009087014283247e-17
11
11.019506403026728
21
25.175493596973247
31
-1.0009087014283247e-17
  0
LINE
 8
Layer0
10
21.81450640302671
20
25.624506403026704
30
7.91998665441342e-15
11
21.748749999999983
21
25.67496306570153
31
7.940578019666516e-15
  0
LINE
 8
Layer0
10
21.748749999999983
20
25.67496306570153
30
7.940578019666516e-15
11
21.67217504682003
21
25.70668144984675
31
7.962707808053987e-15
  0
LINE
 8
Layer0
10
21.67217504682003
20
25.70668144984675
30
7.962707808053987e-15
11
21.589999999999982
21
25.717499999999973
31
7.908791841289795e-15
  0
LINE
 8
Layer0
10
25.717499999999983
20
10.794999999999991
30
5.351667926818261e-15
11
25.717499999999983
21
8.889999999999992
31
5.351667926818261e-15
  0
LINE
 8
Layer0
10
21.896681449846756
20
25.31782495317993
30
7.877591141056081e-15
11
21.907499999999978
21
25.399999999999977
31
7.8803914472403e-15
  0
LINE
 8
Layer0
10
21.896681449846756
20
25.482175046820025
30
7.888831792006725e-15
11
21.864963065701534
21
25.558749999999975
31
7.902336979807856e-15
  0
LINE
 8
Layer0
10
21.864963065701534
20
25.558749999999975
30
7.902336979807856e-15
11
21.81450640302671
21
25.624506403026704
31
7.91998665441342e-15
  0
LINE
 8
Layer0
10
8.80782495317995
20
25.0933185501532
30
-1.5897404900379505e-16
11
8.89
21
25.08249999999998
31
-1.6717083174541706e-16
  0
LINE
 8
Layer0
10
8.89
20
25.08249999999998
30
-1.6717083174541706e-16
11
8.89
21
0.635
31
2.1397942130741363e-16
  0
LINE
 8
Layer0
10
8.615036934298441
20
25.55874999999998
30
-7.260651850493407e-17
11
8.583318550153221
21
25.48217504682003
31
-8.176261056516194e-17
  0
LINE
 8
Layer0
10
11.06996306570156
20
25.55874999999998
30
-1.0009087014283247e-17
11
11.019506403026728
21
25.624506403026707
31
-1.0009087014283247e-17
  0
LINE
 8
Layer0
10
8.73125
20
25.12503693429842
30
-1.48034747602034e-16
11
8.80782495317995
21
25.0933185501532
31
-1.5897404900379505e-16
  0
LINE
 8
Layer0
10
11.019506403026728
20
25.624506403026707
30
-1.0009087014283247e-17
11
10.95375
21
25.674963065701537
31
-1.0009087014283247e-17
  0
LINE
 8
Layer0
10
8.5725
20
25.399999999999977
30
-9.343801589690924e-17
11
8.583318550153221
21
25.317824953179926
31
-1.0683707492133549e-16
  0
LINE
 8
Layer0
10
4.7625
20
27.463749999999976
30
1.2179680639056838e-15
11
5.214462757510277
21
27.404247974157265
31
1.1649758701104587e-15
  0
LINE
 8
Layer0
10
5.214462757510277
20
27.404247974157265
30
1.1649758701104587e-15
11
5.635625
21
27.22979686135855
31
1.0998680791301448e-15
  0
LINE
 8
Layer0
10
5.635625
20
27.22979686135855
30
1.0998680791301448e-15
11
5.9972852166470085
21
26.952285216646988
31
1.0270816793243377e-15
  0
LINE
 8
Layer0
10
5.9972852166470085
20
26.952285216646988
30
1.0270816793243377e-15
11
6.274796861358576
21
26.590624999999978
31
9.515769435545906e-16
  0
LINE
 8
Layer0
10
6.274796861358576
20
26.590624999999978
30
9.515769435545906e-16
11
6.449247974157286
21
26.169462757510253
31
8.784993947861365e-16
  0
LINE
 8
Layer0
10
6.449247974157286
20
26.169462757510253
30
8.784993947861365e-16
11
6.50875
21
25.717499999999976
31
8.128291472011859e-16
  0
LINE
 8
Layer0
10
6.50875
20
25.717499999999976
30
8.128291472011859e-16
11
6.449247974157286
21
25.265537242489703
31
7.590415196474378e-16
  0
LINE
 8
Layer0
10
6.449247974157286
20
25.265537242489703
30
7.590415196474378e-16
11
6.274796861358577
21
24.844374999999978
31
7.208020500544227e-16
  0
LINE
 8
Layer0
10
6.274796861358577
20
24.844374999999978
30
7.208020500544227e-16
11
5.9972852166470085
21
24.482714783352968
31
7.007166950811935e-16
  0
LINE
 8
Layer0
10
5.9972852166470085
20
24.482714783352968
30
7.007166950811935e-16
11
5.635625
21
24.2052031386414
31
7.001542384765569e-16
  0
LINE
 8
Layer0
10
5.635625
20
24.2052031386414
30
7.001542384765569e-16
11
5.214462757510278
21
24.03075202584269
31
7.191530107286158e-16
  0
LINE
 8
Layer0
10
5.214462757510278
20
24.03075202584269
30
7.191530107286158e-16
11
4.7625
21
23.971249999999976
31
7.564182769053479e-16
  0
LINE
 8
Layer0
10
4.7625
20
23.971249999999976
30
7.564182769053479e-16
11
4.3105372424897235
21
24.03075202584269
31
8.094104707005727e-16
  0
LINE
 8
Layer0
10
4.3105372424897235
20
24.03075202584269
30
8.094104707005727e-16
11
3.8893750000000007
21
24.2052031386414
31
8.745182616808869e-16
  0
LINE
 8
Layer0
10
3.8893750000000007
20
24.2052031386414
30
8.745182616808869e-16
11
3.5277147833529923
21
24.482714783352968
31
9.47304661486694e-16
  0
LINE
 8
Layer0
10
3.5277147833529923
20
24.482714783352968
30
9.47304661486694e-16
11
3.2502031386414245
21
24.844374999999978
31
1.0228093972564408e-15
  0
LINE
 8
Layer0
10
3.2502031386414245
20
24.844374999999978
30
1.0228093972564408e-15
11
3.075752025842715
21
25.265537242489703
31
1.095886946024895e-15
  0
LINE
 8
Layer0
10
3.075752025842715
20
25.265537242489703
30
1.095886946024895e-15
11
3.01625
21
25.717499999999976
31
1.1615571936098458e-15
  0
LINE
 8
Layer0
10
3.01625
20
25.717499999999976
30
1.1615571936098458e-15
11
3.0757520258427142
21
26.169462757510253
31
1.215344821163594e-15
  0
LINE
 8
Layer0
10
3.0757520258427142
20
26.169462757510253
30
1.215344821163594e-15
11
3.250203138641423
21
26.590624999999978
31
1.2535842907566089e-15
  0
LINE
 8
Layer0
10
3.250203138641423
20
26.590624999999978
30
1.2535842907566089e-15
11
3.527714783352991
21
26.952285216646988
31
1.273669645729838e-15
  0
LINE
 8
Layer0
10
3.527714783352991
20
26.952285216646988
30
1.273669645729838e-15
11
3.889374999999999
21
27.22979686135855
31
1.2742321023344747e-15
  0
LINE
 8
Layer0
10
3.889374999999999
20
27.22979686135855
30
1.2742321023344747e-15
11
4.310537242489722
21
27.404247974157265
31
1.2552333300824157e-15
  0
LINE
 8
Layer0
10
4.310537242489722
20
27.404247974157265
30
1.2552333300824157e-15
11
4.7625
21
27.463749999999976
31
1.2179680639056838e-15
  0
LINE
 8
Layer0
10
24.84437499999998
20
27.229796861358547
30
1.3992890252046416e-15
11
25.265537242489707
21
27.404247974157258
31
1.3992890252046416e-15
  0
LINE
 8
Layer0
10
27.463749999999983
20
25.717499999999973
30
1.3992890252046412e-15
11
27.40424797415727
21
25.265537242489696
31
1.3992890252046407e-15
  0
LINE
 8
Layer0
10
24.2052031386414
20
26.590624999999974
30
1.3992890252046412e-15
11
24.48271478335297
21
26.952285216646985
31
1.3992890252046416e-15
  0
LINE
 8
Layer0
10
23.971249999999984
20
25.717499999999973
30
1.3992890252046416e-15
11
24.030752025842695
21
26.16946275751025
31
1.3992890252046407e-15
  0
LINE
 8
Layer0
10
26.59062499999998
20
27.229796861358547
30
1.3992890252046422e-15
11
26.95228521664699
21
26.952285216646985
31
1.3992890252046416e-15
  0
LINE
 8
Layer0
10
24.48271478335297
20
26.952285216646985
30
1.3992890252046416e-15
11
24.84437499999998
21
27.229796861358547
31
1.3992890252046416e-15
  0
LINE
 8
Layer0
10
25.265537242489707
20
24.030752025842688
30
1.3992890252046412e-15
11
24.84437499999998
21
24.205203138641398
31
1.3992890252046407e-15
  0
LINE
 8
Layer0
10
24.030752025842695
20
25.265537242489696
30
1.3992890252046407e-15
11
23.971249999999984
21
25.717499999999973
31
1.3992890252046416e-15
  0
LINE
 8
Layer0
10
26.59062499999998
20
24.205203138641398
30
1.3992890252046412e-15
11
26.16946275751026
21
24.030752025842688
31
1.3992890252046412e-15
  0
LINE
 8
Layer0
10
25.265537242489707
20
27.404247974157258
30
1.3992890252046416e-15
11
25.717499999999983
21
27.463749999999973
31
1.3992890252046416e-15
  0
LINE
 8
Layer0
10
24.48271478335297
20
24.482714783352964
30
1.3992890252046412e-15
11
24.20520313864141
21
24.844374999999975
31
1.3992890252046407e-15
  0
LINE
 8
Layer0
10
26.16946275751026
20
27.404247974157258
30
1.3992890252046416e-15
11
26.59062499999998
21
27.229796861358547
31
1.3992890252046422e-15
  0
LINE
 8
Layer0
10
27.40424797415727
20
25.265537242489696
30
1.3992890252046407e-15
11
27.22979686135856
21
24.844374999999975
31
1.3992890252046412e-15
  0
LINE
 8
Layer0
10
27.40424797415727
20
26.16946275751025
30
1.3992890252046416e-15
11
27.463749999999983
21
25.717499999999973
31
1.3992890252046412e-15
  0
LINE
 8
Layer0
10
24.84437499999998
20
24.205203138641398
30
1.3992890252046407e-15
11
24.48271478335297
21
24.482714783352964
31
1.3992890252046412e-15
  0
LINE
 8
Layer0
10
25.717499999999983
20
23.971249999999973
30
1.3992890252046407e-15
11
25.265537242489707
21
24.030752025842688
31
1.3992890252046412e-15
  0
LINE
 8
Layer0
10
24.20520313864141
20
24.844374999999975
30
1.3992890252046407e-15
11
24.030752025842695
21
25.265537242489696
31
1.3992890252046407e-15
  0
LINE
 8
Layer0
10
24.030752025842695
20
26.16946275751025
30
1.3992890252046407e-15
11
24.2052031386414
21
26.590624999999974
31
1.3992890252046412e-15
  0
LINE
 8
Layer0
10
26.16946275751026
20
24.030752025842688
30
1.3992890252046412e-15
11
25.717499999999983
21
23.971249999999973
31
1.3992890252046407e-15
  0
LINE
 8
Layer0
10
27.22979686135856
20
24.844374999999975
30
1.3992890252046412e-15
11
26.95228521664699
21
24.482714783352964
31
1.3992890252046412e-15
  0
LINE
 8
Layer0
10
26.95228521664699
20
26.952285216646985
30
1.3992890252046416e-15
11
27.229796861358558
21
26.590624999999974
31
1.3992890252046412e-15
  0
LINE
 8
Layer0
10
27.229796861358558
20
26.590624999999974
30
1.3992890252046412e-15
11
27.40424797415727
21
26.16946275751025
31
1.3992890252046416e-15
  0
LINE
 8
Layer0
10
25.717499999999983
20
27.463749999999973
30
1.3992890252046416e-15
11
26.16946275751026
21
27.404247974157258
31
1.3992890252046416e-15
  0
LINE
 8
Layer0
10
26.95228521664699
20
24.482714783352964
30
1.3992890252046412e-15
11
26.59062499999998
21
24.205203138641398
31
1.3992890252046412e-15
  0
LINE
 8
Layer0
10
24.84437499999998
20
6.274796861358575
30
2.245061008247083e-15
11
25.265537242489707
21
6.449247974157286
31
2.264059780499142e-15
  0
LINE
 8
Layer0
10
23.971249999999984
20
4.7625
30
2.3577359169717108e-15
11
24.030752025842695
21
5.214462757510277
31
2.3039482894179617e-15
  0
LINE
 8
Layer0
10
24.48271478335297
20
3.5277147833529905
30
2.5719884490948623e-15
11
24.20520313864141
21
3.8893750000000002
31
2.4964837133251154e-15
  0
LINE
 8
Layer0
10
26.16946275751026
20
6.449247974157286
30
2.3543172404710983e-15
11
26.59062499999998
21
6.274796861358575
31
2.419425031451413e-15
  0
LINE
 8
Layer0
10
27.40424797415727
20
4.3105372424897235
30
2.7602515909341178e-15
11
27.22979686135856
21
3.8893750000000002
31
2.7984910605271343e-15
  0
LINE
 8
Layer0
10
27.40424797415727
20
5.214462757510277
30
2.64079371579542e-15
11
27.463749999999983
21
4.7625
31
2.7064639633803706e-15
  0
LINE
 8
Layer0
10
24.84437499999998
20
3.2502031386414254
30
2.6447748489006684e-15
11
24.48271478335297
21
3.5277147833529905
31
2.5719884490948623e-15
  0
LINE
 8
Layer0
10
25.717499999999983
20
3.01625
30
2.762874833676208e-15
11
25.265537242489707
21
3.0757520258427142
31
2.7098826398809835e-15
  0
LINE
 8
Layer0
10
24.20520313864141
20
3.8893750000000002
30
2.4964837133251154e-15
11
24.030752025842695
21
4.3105372424897235
31
2.4234061645566605e-15
  0
LINE
 8
Layer0
10
26.16946275751026
20
3.0757520258427142
30
2.80014009985294e-15
11
25.717499999999983
21
3.01625
31
2.762874833676208e-15
  0
LINE
 8
Layer0
10
27.22979686135856
20
3.8893750000000002
30
2.7984910605271343e-15
11
26.95228521664699
21
3.5277147833529905
31
2.818576415500363e-15
  0
LINE
 8
Layer0
10
26.95228521664699
20
5.997285216647009
30
2.4922114312572195e-15
11
27.229796861358558
21
5.635625
31
2.567716167026966e-15
  0
LINE
 8
Layer0
10
27.229796861358558
20
5.635625
30
2.567716167026966e-15
11
27.40424797415727
21
5.214462757510277
31
2.64079371579542e-15
  0
LINE
 8
Layer0
10
25.717499999999983
20
6.50875
30
2.3013250466758734e-15
11
26.16946275751026
21
6.449247974157286
31
2.3543172404710983e-15
  0
LINE
 8
Layer0
10
26.95228521664699
20
3.5277147833529905
30
2.818576415500363e-15
11
26.59062499999998
21
3.2502031386414254
31
2.8191388721049985e-15
  0
LINE
 8
Layer0
10
24.030752025842695
20
5.214462757510277
30
2.3039482894179617e-15
11
24.2052031386414
21
5.635625
31
2.2657088198249475e-15
  0
LINE
 8
Layer0
10
25.265537242489707
20
6.449247974157286
30
2.264059780499142e-15
11
25.717499999999983
21
6.50875
31
2.3013250466758734e-15
  0
LINE
 8
Layer0
10
26.59062499999998
20
6.274796861358575
30
2.419425031451413e-15
11
26.95228521664699
21
5.997285216647009
31
2.4922114312572195e-15
  0
LINE
 8
Layer0
10
24.48271478335297
20
5.997285216647009
30
2.2456234648517184e-15
11
24.84437499999998
21
6.274796861358575
31
2.245061008247083e-15
  0
LINE
 8
Layer0
10
25.265537242489707
20
3.0757520258427142
30
2.7098826398809835e-15
11
24.84437499999998
21
3.2502031386414254
31
2.6447748489006684e-15
  0
LINE
 8
Layer0
10
24.030752025842695
20
4.3105372424897235
30
2.4234061645566605e-15
11
23.971249999999984
21
4.7625
31
2.3577359169717108e-15
  0
LINE
 8
Layer0
10
26.59062499999998
20
3.2502031386414254
30
2.8191388721049985e-15
11
26.16946275751026
21
3.0757520258427142
31
2.80014009985294e-15
  0
LINE
 8
Layer0
10
27.463749999999983
20
4.7625
30
2.7064639633803706e-15
11
27.40424797415727
21
4.3105372424897235
31
2.7602515909341178e-15
  0
LINE
 8
Layer0
10
24.2052031386414
20
5.635625
30
2.2657088198249475e-15
11
24.48271478335297
21
5.997285216647009
31
2.2456234648517184e-15
  0
LINE
 8
Layer0
10
111.0320064030267
20
11.01950640302672
30
6.976701159153636e-16
11
110.96624999999996
21
11.06996306570155
31
7.08899842046596e-16
  0
LINE
 8
Layer0
10
87.66521478335298
20
24.800214783352967
30
3.440093067518176e-17
11
87.3877031386414
21
25.161874999999977
31
1.0990566644492869e-16
  0
LINE
 8
Layer0
10
87.3877031386414
20
25.161874999999977
30
1.0990566644492869e-16
11
87.2132520258427
21
25.583037242489702
31
1.8298321521338299e-16
  0
LINE
 8
Layer0
10
88.35799359697326
20
21.814506403026712
30
7.649416307101461e-16
11
88.30753693429843
21
21.748749999999983
31
7.708464248673102e-16
  0
LINE
 8
Layer0
10
88.42374999999998
20
21.86496306570154
30
7.542122037633003e-16
11
88.35799359697326
21
21.814506403026712
31
7.649416307101461e-16
  0
LINE
 8
Layer0
10
90.41229686135856
20
26.908124999999977
30
3.8673212743078443e-17
11
90.58674797415726
21
26.486962757510256
31
-3.440433602537537e-17
  0
LINE
 8
Layer0
10
108.80325202584268
20
25.583037242489702
30
7.077090798139153e-16
11
108.74374999999996
21
26.03499999999998
31
7.077090798139163e-16
  0
LINE
 8
Layer0
10
110.94196275751025
20
24.34825202584269
30
7.077090798139153e-16
11
110.48999999999997
21
24.28874999999998
31
7.077090798139153e-16
  0
LINE
 8
Layer0
10
110.48999999999997
20
24.28874999999998
30
7.077090798139153e-16
11
110.03803724248971
21
24.34825202584269
31
7.077090798139153e-16
  0
LINE
 8
Layer0
10
104.13999999999997
20
26.35249999999999
30
0.0
11
104.0578249531799
21
26.341681449846764
31
1.0872159932714621e-16
  0
LINE
 8
Layer0
10
103.98124999999996
20
25.760036934298437
30
1.0872159932714621e-16
11
104.0578249531799
21
25.72831855015322
31
1.0872159932714621e-16
  0
LINE
 8
Layer0
10
108.74374999999996
20
4.444999999999991
30
-1.7631703711310121e-15
11
108.80325202584268
21
4.896962757510267
31
-1.8169579986847612e-15
  0
LINE
 8
Layer0
10
84.45499999999998
20
21.589999999999982
30
9.023892744153272e-15
11
84.45499999999998
21
30.47999999999998
31
0.0
  0
LINE
 8
Layer0
10
106.31996306570151
20
26.193749999999987
30
4.5054915105946965e-15
11
106.2695064030267
21
26.259506403026716
31
4.523141185200262e-15
  0
LINE
 8
Layer0
10
104.13999999999997
20
-9.023892744153272e-15
30
9.023892744153272e-15
11
104.13999999999997
21
25.717499999999998
31
1.0872159932714621e-16
  0
LINE
 8
Layer0
10
90.58674797415726
20
25.583037242489702
30
-1.538622111640745e-16
11
90.41229686135856
21
25.161874999999977
31
-1.9210168075708928e-16
  0
LINE
 8
Layer0
10
90.41229686135856
20
25.161874999999977
30
-1.9210168075708928e-16
11
90.13478521664699
21
24.800214783352967
31
-2.1218703573031874e-16
  0
LINE
 8
Layer0
10
95.33217504682004
20
25.72831855015321
30
9.023892744153272e-15
11
95.40874999999998
21
25.760036934298434
31
9.023892744153272e-15
  0
LINE
 8
Layer0
10
95.56749999999998
20
26.034999999999993
30
9.023892744153272e-15
11
95.55668144984675
21
26.117175046820044
31
9.023892744153272e-15
  0
LINE
 8
Layer0
10
111.72478521664698
20
5.679785216647001
30
-1.6286948568455034e-15
11
112.00229686135854
21
5.318124999999991
31
-1.5531901210757569e-15
  0
LINE
 8
Layer0
10
93.03831855015319
20
25.952824953179938
30
8.92706475624622e-15
11
93.07003693429843
21
25.87624999999999
31
8.912855167258638e-15
  0
LINE
 8
Layer0
10
106.31996306570151
20
25.87624999999999
30
4.483776240479638e-15
11
106.35168144984674
21
25.952824953179945
31
4.480745671842921e-15
  0
LINE
 8
Layer0
10
88.4480372424897
20
24.34825202584269
30
-1.0349326011093905e-16
11
88.02687499999999
21
24.522703138641404
31
-3.838546913062509e-17
  0
LINE
 8
Layer0
10
88.02687499999999
20
24.522703138641404
30
-3.838546913062509e-17
11
87.66521478335298
21
24.800214783352967
31
3.440093067518176e-17
  0
LINE
 8
Layer0
10
108.9777031386414
20
5.318124999999991
30
-1.8551974682777754e-15
11
109.25521478335297
21
5.679785216647001
31
-1.8752828232510045e-15
  0
LINE
 8
Layer0
10
108.74374999999996
20
26.03499999999998
30
7.077090798139163e-16
11
108.80325202584268
21
26.486962757510256
31
7.077090798139153e-16
  0
LINE
 8
Layer0
10
93.02749999999999
20
26.034999999999993
30
8.940463815270646e-15
11
93.03831855015319
21
25.952824953179938
31
8.92706475624622e-15
  0
LINE
 8
Layer0
10
110.80749999999996
20
11.112499999999992
30
7.276460961445112e-16
11
110.7253249531799
21
11.101681449846769
31
7.338850978740707e-16
  0
LINE
 8
Layer0
10
111.08246306570152
20
10.95374999999999
30
6.862001995562775e-16
11
111.0320064030267
21
11.01950640302672
31
6.976701159153636e-16
  0
LINE
 8
Layer0
10
106.20374999999997
20
26.309963065701545
30
4.543732550453357e-15
11
106.12717504682003
21
26.341681449846764
31
4.565862338840827e-15
  0
LINE
 8
Layer0
10
108.80325202584268
20
4.896962757510267
30
-1.8169579986847612e-15
11
108.9777031386414
21
5.318124999999991
31
-1.8551974682777754e-15
  0
LINE
 8
Layer0
10
110.48999999999997
20
10.794999999999991
30
0.0
11
110.48999999999997
21
8.889999999999992
31
0.0
  0
LINE
 8
Layer0
10
111.72478521664698
20
3.2102147833529813
30
-1.3023298726023599e-15
11
111.36312499999997
21
2.9327031386414166
31
-1.3017674159977242e-15
  0
LINE
 8
Layer0
10
103.98124999999996
20
26.309963065701545
30
1.0872159932714621e-16
11
103.91549359697323
21
26.259506403026716
31
1.0872159932714621e-16
  0
LINE
 8
Layer0
10
93.07003693429843
20
26.19374999999999
30
8.961295312662621e-15
11
93.03831855015319
21
26.117175046820044
31
8.952139220602395e-15
  0
LINE
 8
Layer0
10
103.86503693429842
20
25.876249999999995
30
1.0872159932714621e-16
11
103.91549359697323
21
25.810493596973267
31
1.0872159932714621e-16
  0
LINE
 8
Layer0
10
93.03831855015319
20
26.117175046820044
30
8.952139220602395e-15
11
93.02749999999999
21
26.034999999999993
31
8.940463815270646e-15
  0
LINE
 8
Layer0
10
111.36312499999997
20
24.522703138641404
30
7.077090798139153e-16
11
110.94196275751025
21
24.34825202584269
31
7.077090798139153e-16
  0
LINE
 8
Layer0
10
84.45499999999997
20
15.239999999999991
30
8.338218246582976e-15
11
84.45499999999998
21
0.0
31
0.0
  0
LINE
 8
Layer0
10
93.34499999999998
20
0.0
30
0.0
11
84.45499999999998
21
0.0
31
0.0
  0
LINE
 8
Layer0
10
93.34499999999998
20
25.71749999999999
30
8.866730999422138e-15
11
93.34499999999998
21
0.0
31
0.0
  0
LINE
 8
Layer0
10
93.26282495317993
20
25.72831855015321
30
8.874927782163759e-15
11
93.34499999999998
21
25.71749999999999
31
8.866730999422138e-15
  0
LINE
 8
Layer0
10
93.18624999999999
20
25.760036934298434
30
8.88586708356552e-15
11
93.26282495317993
21
25.72831855015321
31
8.874927782163759e-15
  0
LINE
 8
Layer0
10
93.12049359697325
20
25.81049359697326
30
8.898803408314942e-15
11
93.18624999999999
21
25.760036934298434
31
8.88586708356552e-15
  0
LINE
 8
Layer0
10
93.07003693429843
20
25.87624999999999
30
8.912855167258638e-15
11
93.12049359697325
21
25.81049359697326
31
8.898803408314942e-15
  0
LINE
 8
Layer0
10
93.12049359697325
20
26.259506403026723
30
8.967308118908581e-15
11
93.07003693429843
21
26.19374999999999
31
8.961295312662621e-15
  0
LINE
 8
Layer0
10
93.18624999999999
20
26.30996306570155
30
8.969767876531249e-15
11
93.12049359697325
21
26.259506403026723
31
8.967308118908581e-15
  0
LINE
 8
Layer0
10
93.26282495317993
20
26.34168144984677
30
8.968506957113578e-15
11
93.18624999999999
21
26.30996306570155
31
8.969767876531249e-15
  0
LINE
 8
Layer0
10
93.34499999999998
20
26.352499999999992
30
9.023892744153272e-15
11
93.26282495317993
21
26.34168144984677
31
8.968506957113578e-15
  0
LINE
 8
Layer0
10
95.24999999999999
20
26.352499999999992
30
9.023892744153272e-15
11
93.34499999999998
21
26.352499999999992
31
9.023892744153272e-15
  0
LINE
 8
Layer0
10
95.33217504682004
20
26.34168144984677
30
9.023892744153272e-15
11
95.24999999999999
21
26.352499999999992
31
9.023892744153272e-15
  0
LINE
 8
Layer0
10
95.40874999999998
20
26.30996306570155
30
9.023892744153272e-15
11
95.33217504682004
21
26.34168144984677
31
9.023892744153272e-15
  0
LINE
 8
Layer0
10
95.47450640302671
20
26.259506403026723
30
9.023892744153272e-15
11
95.40874999999998
21
26.30996306570155
31
9.023892744153272e-15
  0
LINE
 8
Layer0
10
95.52496306570154
20
26.19374999999999
30
9.023892744153272e-15
11
95.47450640302671
21
26.259506403026723
31
9.023892744153272e-15
  0
LINE
 8
Layer0
10
95.55668144984675
20
26.117175046820044
30
9.023892744153272e-15
11
95.52496306570154
21
26.19374999999999
31
9.023892744153272e-15
  0
LINE
 8
Layer0
10
95.55668144984675
20
25.952824953179938
30
9.023892744153272e-15
11
95.56749999999998
21
26.034999999999993
31
9.023892744153272e-15
  0
LINE
 8
Layer0
10
95.52496306570154
20
25.87624999999999
30
9.023892744153272e-15
11
95.55668144984675
21
25.952824953179938
31
9.023892744153272e-15
  0
LINE
 8
Layer0
10
95.47450640302671
20
25.81049359697326
30
9.023892744153272e-15
11
95.52496306570154
21
25.87624999999999
31
9.023892744153272e-15
  0
LINE
 8
Layer0
10
95.40874999999998
20
25.760036934298434
30
9.023892744153272e-15
11
95.47450640302671
21
25.81049359697326
31
9.023892744153272e-15
  0
LINE
 8
Layer0
10
95.24999999999999
20
25.71749999999999
30
9.023892744153272e-15
11
95.33217504682004
21
25.72831855015321
31
9.023892744153272e-15
  0
LINE
 8
Layer0
10
95.24999999999999
20
-9.023892744153272e-15
30
0.0
11
95.24999999999999
21
25.71749999999999
31
9.023892744153272e-15
  0
LINE
 8
Layer0
10
104.13999999999997
20
-9.023892744153272e-15
30
9.023892744153272e-15
11
95.24999999999999
21
-9.023892744153272e-15
31
0.0
  0
LINE
 8
Layer0
10
104.0578249531799
20
25.72831855015322
30
1.0872159932714621e-16
11
104.13999999999997
21
25.717499999999998
31
1.0872159932714621e-16
  0
LINE
 8
Layer0
10
103.91549359697323
20
25.810493596973267
30
1.0872159932714621e-16
11
103.98124999999996
21
25.760036934298437
31
1.0872159932714621e-16
  0
LINE
 8
Layer0
10
103.8333185501532
20
25.952824953179945
30
1.0872159932714621e-16
11
103.86503693429842
21
25.876249999999995
31
1.0872159932714621e-16
  0
LINE
 8
Layer0
10
103.82249999999996
20
26.034999999999993
30
1.0872159932714621e-16
11
103.8333185501532
21
25.952824953179945
31
1.0872159932714621e-16
  0
LINE
 8
Layer0
10
103.8333185501532
20
26.11717504682004
30
1.0872159932714621e-16
11
103.82249999999996
21
26.034999999999993
31
1.0872159932714621e-16
  0
LINE
 8
Layer0
10
103.86503693429842
20
26.19374999999999
30
1.0872159932714621e-16
11
103.8333185501532
21
26.11717504682004
31
1.0872159932714621e-16
  0
LINE
 8
Layer0
10
103.91549359697323
20
26.259506403026716
30
1.0872159932714621e-16
11
103.86503693429842
21
26.19374999999999
31
1.0872159932714621e-16
  0
LINE
 8
Layer0
10
104.0578249531799
20
26.341681449846764
30
1.0872159932714621e-16
11
103.98124999999996
21
26.309963065701545
31
1.0872159932714621e-16
  0
LINE
 8
Layer0
10
106.04499999999996
20
26.35249999999999
30
4.511946372076636e-15
11
104.13999999999997
21
26.35249999999999
31
0.0
  0
LINE
 8
Layer0
10
106.12717504682003
20
26.341681449846764
30
4.565862338840827e-15
11
106.04499999999996
21
26.35249999999999
31
4.511946372076636e-15
  0
LINE
 8
Layer0
10
106.2695064030267
20
26.259506403026716
30
4.523141185200262e-15
11
106.20374999999997
21
26.309963065701545
31
4.543732550453357e-15
  0
LINE
 8
Layer0
10
106.35168144984674
20
26.11717504682004
30
4.491986322793567e-15
11
106.31996306570151
21
26.193749999999987
31
4.5054915105946965e-15
  0
LINE
 8
Layer0
10
106.36249999999997
20
26.034999999999993
30
4.483545978027141e-15
11
106.35168144984674
21
26.11717504682004
31
4.491986322793567e-15
  0
LINE
 8
Layer0
10
106.35168144984674
20
25.952824953179945
30
4.480745671842921e-15
11
106.36249999999997
21
26.034999999999993
31
4.483545978027141e-15
  0
LINE
 8
Layer0
10
106.2695064030267
20
25.810493596973267
30
4.492431155692949e-15
11
106.31996306570151
21
25.87624999999999
31
4.483776240479638e-15
  0
LINE
 8
Layer0
10
106.20374999999997
20
25.760036934298437
30
4.5061205993139914e-15
11
106.2695064030267
21
25.810493596973267
31
4.492431155692949e-15
  0
LINE
 8
Layer0
10
106.12717504682003
20
25.72831855015322
30
4.523911658382869e-15
11
106.20374999999997
21
25.760036934298437
31
4.5061205993139914e-15
  0
LINE
 8
Layer0
10
106.04499999999996
20
25.717499999999998
30
4.544591901625149e-15
11
106.12717504682003
21
25.72831855015322
31
4.523911658382869e-15
  0
LINE
 8
Layer0
10
106.04499999999996
20
-9.023892744153272e-15
30
9.023892744153272e-15
11
106.04499999999996
21
25.717499999999998
31
4.544591901625149e-15
  0
LINE
 8
Layer0
10
114.93499999999996
20
-9.023892744153272e-15
30
0.0
11
106.04499999999996
21
-9.023892744153272e-15
31
9.023892744153272e-15
  0
LINE
 8
Layer0
10
114.93499999999996
20
-9.023892744153272e-15
30
0.0
11
114.935
21
4.444999999999991
31
-4.211149947271511e-15
  0
LINE
 8
Layer0
10
114.935
20
4.444999999999991
30
-4.211149947271511e-15
11
110.48999999999997
21
8.889999999999992
31
0.0
  0
LINE
 8
Layer0
10
110.50081855015318
20
10.87717504682004
30
7.303605776628055e-16
11
110.48999999999997
21
10.794999999999991
31
0.0
  0
LINE
 8
Layer0
10
110.5325369342984
20
10.95374999999999
30
7.355914922923311e-16
11
110.50081855015318
21
10.87717504682004
31
7.303605776628055e-16
  0
LINE
 8
Layer0
10
110.58299359697324
20
11.01950640302672
30
7.379979375619506e-16
11
110.5325369342984
21
10.95374999999999
31
7.355914922923311e-16
  0
LINE
 8
Layer0
10
110.64874999999996
20
11.06996306570155
30
7.374159182033791e-16
11
110.58299359697324
21
11.01950640302672
31
7.379979375619506e-16
  0
LINE
 8
Layer0
10
110.7253249531799
20
11.101681449846769
30
7.338850978740707e-16
11
110.64874999999996
21
11.06996306570155
31
7.374159182033791e-16
  0
LINE
 8
Layer0
10
110.88967504682002
20
11.101681449846769
30
7.191240906721319e-16
11
110.80749999999996
21
11.112499999999992
31
7.276460961445112e-16
  0
LINE
 8
Layer0
10
110.96624999999996
20
11.06996306570155
30
7.08899842046596e-16
11
110.88967504682002
21
11.101681449846769
31
7.191240906721319e-16
  0
LINE
 8
Layer0
10
111.11418144984675
20
10.87717504682004
30
6.752717488142788e-16
11
111.08246306570152
21
10.95374999999999
31
6.862001995562775e-16
  0
LINE
 8
Layer0
10
111.12499999999997
20
10.794999999999991
30
6.656295195473143e-16
11
111.11418144984675
21
10.87717504682004
31
6.752717488142788e-16
  0
LINE
 8
Layer0
10
114.93499999999996
20
10.794999999999991
30
9.023892744153272e-15
11
111.12499999999997
21
10.794999999999991
31
6.656295195473143e-16
  0
LINE
 8
Layer0
10
114.93499999999996
20
30.47999999999998
30
0.0
11
114.93499999999996
21
10.794999999999991
31
9.023892744153272e-15
  0
LINE
 8
Layer0
10
84.45499999999998
20
30.47999999999998
30
0.0
11
114.93499999999996
21
30.47999999999998
31
0.0
  0
LINE
 8
Layer0
10
84.45499999999998
20
21.589999999999982
30
9.023892744153272e-15
11
88.26499999999999
21
21.589999999999982
31
7.669287207382392e-16
  0
LINE
 8
Layer0
10
88.27581855015319
20
21.672175046820033
30
7.715241842711136e-16
11
88.26499999999999
21
21.589999999999982
31
7.669287207382392e-16
  0
LINE
 8
Layer0
10
88.30753693429843
20
21.748749999999983
30
7.708464248673102e-16
11
88.27581855015319
21
21.672175046820033
31
7.715241842711136e-16
  0
LINE
 8
Layer0
10
88.50032495317993
20
21.89668144984676
30
7.393893367419826e-16
11
88.42374999999998
21
21.86496306570154
31
7.542122037633003e-16
  0
LINE
 8
Layer0
10
88.58249999999998
20
21.90749999999998
30
7.214831835377499e-16
11
88.50032495317993
21
21.89668144984676
31
7.393893367419826e-16
  0
LINE
 8
Layer0
10
88.66467504682004
20
21.89668144984676
30
7.017140189001541e-16
11
88.58249999999998
21
21.90749999999998
31
7.214831835377499e-16
  0
LINE
 8
Layer0
10
88.74124999999998
20
21.86496306570154
30
6.814290787291576e-16
11
88.66467504682004
21
21.89668144984676
31
7.017140189001541e-16
  0
LINE
 8
Layer0
10
88.80700640302672
20
21.814506403026712
30
6.620107481749664e-16
11
88.74124999999998
21
21.86496306570154
31
6.814290787291576e-16
  0
LINE
 8
Layer0
10
88.85746306570154
20
21.748749999999983
30
6.447823543745381e-16
11
88.80700640302672
21
21.814506403026712
31
6.620107481749664e-16
  0
LINE
 8
Layer0
10
88.88918144984676
20
21.672175046820033
30
6.309179838941055e-16
11
88.85746306570154
21
21.748749999999983
31
6.447823543745381e-16
  0
LINE
 8
Layer0
10
88.89999999999998
20
21.589999999999982
30
0.0
11
88.88918144984676
21
21.672175046820033
31
6.309179838941055e-16
  0
LINE
 8
Layer0
10
88.89999999999998
20
21.589999999999982
30
0.0
11
88.89999999999998
21
19.68499999999999
31
0.0
  0
LINE
 8
Layer0
10
84.45499999999997
20
15.239999999999991
30
8.338218246582976e-15
11
88.89999999999998
21
19.68499999999999
31
0.0
  0
LINE
 8
Layer0
10
89.77312499999998
20
27.547296861358554
30
1.8696434831863273e-16
11
90.13478521664699
21
27.269785216646987
31
1.1417794851282536e-16
  0
LINE
 8
Layer0
10
90.13478521664699
20
27.269785216646987
30
1.1417794851282536e-16
11
90.41229686135856
21
26.908124999999977
31
3.8673212743078443e-17
  0
LINE
 8
Layer0
10
90.58674797415726
20
26.486962757510256
30
-3.440433602537537e-17
11
90.64624999999998
21
26.03499999999998
31
-1.0007458361032641e-16
  0
LINE
 8
Layer0
10
90.64624999999998
20
26.03499999999998
30
-1.0007458361032641e-16
11
90.58674797415726
21
25.583037242489702
31
-1.538622111640745e-16
  0
LINE
 8
Layer0
10
90.13478521664699
20
24.800214783352967
30
-2.1218703573031874e-16
11
89.77312499999998
21
24.522703138641404
31
-2.1274949233495482e-16
  0
LINE
 8
Layer0
10
89.77312499999998
20
24.522703138641404
30
-2.1274949233495482e-16
11
89.35196275751026
21
24.34825202584269
31
-1.9375072008289605e-16
  0
LINE
 8
Layer0
10
89.35196275751026
20
24.34825202584269
30
-1.9375072008289605e-16
11
88.89999999999998
21
24.28874999999998
31
-1.564854539061644e-16
  0
LINE
 8
Layer0
10
88.89999999999998
20
24.28874999999998
30
-1.564854539061644e-16
11
88.4480372424897
21
24.34825202584269
31
-1.0349326011093905e-16
  0
LINE
 8
Layer0
10
87.2132520258427
20
25.583037242489702
30
1.8298321521338299e-16
11
87.15374999999999
21
26.03499999999998
31
2.4865346279833406e-16
  0
LINE
 8
Layer0
10
87.15374999999999
20
26.03499999999998
30
2.4865346279833406e-16
11
87.21325202584269
21
26.486962757510256
31
3.024410903520821e-16
  0
LINE
 8
Layer0
10
87.21325202584269
20
26.486962757510256
30
3.024410903520821e-16
11
87.3877031386414
21
26.908124999999977
31
3.406805599450964e-16
  0
LINE
 8
Layer0
10
87.3877031386414
20
26.908124999999977
30
3.406805599450964e-16
11
87.66521478335297
21
27.269785216646987
31
3.6076591491832636e-16
  0
LINE
 8
Layer0
10
87.66521478335297
20
27.269785216646987
30
3.6076591491832636e-16
11
88.02687499999999
21
27.547296861358554
31
3.6132837152296293e-16
  0
LINE
 8
Layer0
10
88.02687499999999
20
27.547296861358554
30
3.6132837152296293e-16
11
88.4480372424897
21
27.721747974157264
31
3.423295992709042e-16
  0
LINE
 8
Layer0
10
88.4480372424897
20
27.721747974157264
30
3.423295992709042e-16
11
88.89999999999998
21
27.78124999999998
31
3.0506433309417204e-16
  0
LINE
 8
Layer0
10
88.89999999999998
20
27.78124999999998
30
3.0506433309417204e-16
11
89.35196275751026
21
27.721747974157264
31
2.520721392989467e-16
  0
LINE
 8
Layer0
10
89.35196275751026
20
27.721747974157264
30
2.520721392989467e-16
11
89.77312499999998
21
27.547296861358554
31
1.8696434831863273e-16
  0
LINE
 8
Layer0
10
112.17674797415727
20
26.486962757510256
30
7.077090798139163e-16
11
112.23624999999997
21
26.03499999999998
31
7.077090798139153e-16
  0
LINE
 8
Layer0
10
112.23624999999997
20
26.03499999999998
30
7.077090798139153e-16
11
112.17674797415727
21
25.583037242489702
31
7.077090798139153e-16
  0
LINE
 8
Layer0
10
112.17674797415727
20
25.583037242489702
30
7.077090798139153e-16
11
112.00229686135856
21
25.161874999999977
31
7.077090798139153e-16
  0
LINE
 8
Layer0
10
112.00229686135856
20
25.161874999999977
30
7.077090798139153e-16
11
111.72478521664698
21
24.800214783352967
31
7.077090798139153e-16
  0
LINE
 8
Layer0
10
111.72478521664698
20
24.800214783352967
30
7.077090798139153e-16
11
111.36312499999997
21
24.522703138641404
31
7.077090798139153e-16
  0
LINE
 8
Layer0
10
110.03803724248971
20
24.34825202584269
30
7.077090798139153e-16
11
109.61687499999996
21
24.522703138641404
31
7.077090798139153e-16
  0
LINE
 8
Layer0
10
109.61687499999996
20
24.522703138641404
30
7.077090798139153e-16
11
109.25521478335297
21
24.800214783352967
31
7.077090798139153e-16
  0
LINE
 8
Layer0
10
109.25521478335297
20
24.800214783352967
30
7.077090798139153e-16
11
108.9777031386414
21
25.161874999999977
31
7.077090798139153e-16
  0
LINE
 8
Layer0
10
108.9777031386414
20
25.161874999999977
30
7.077090798139153e-16
11
108.80325202584268
21
25.583037242489702
31
7.077090798139153e-16
  0
LINE
 8
Layer0
10
108.80325202584268
20
26.486962757510256
30
7.077090798139153e-16
11
108.9777031386414
21
26.908124999999977
31
7.077090798139153e-16
  0
LINE
 8
Layer0
10
108.9777031386414
20
26.908124999999977
30
7.077090798139153e-16
11
109.25521478335297
21
27.269785216646987
31
7.077090798139163e-16
  0
LINE
 8
Layer0
10
109.25521478335297
20
27.269785216646987
30
7.077090798139163e-16
11
109.61687499999996
21
27.547296861358554
31
7.077090798139163e-16
  0
LINE
 8
Layer0
10
109.61687499999996
20
27.547296861358554
30
7.077090798139163e-16
11
110.03803724248971
21
27.721747974157264
31
7.077090798139163e-16
  0
LINE
 8
Layer0
10
110.03803724248971
20
27.721747974157264
30
7.077090798139163e-16
11
110.48999999999997
21
27.78124999999998
31
7.077090798139163e-16
  0
LINE
 8
Layer0
10
110.48999999999997
20
27.78124999999998
30
7.077090798139163e-16
11
110.94196275751025
21
27.721747974157264
31
7.077090798139163e-16
  0
LINE
 8
Layer0
10
110.94196275751025
20
27.721747974157264
30
7.077090798139163e-16
11
111.36312499999997
21
27.547296861358554
31
7.077090798139163e-16
  0
LINE
 8
Layer0
10
111.36312499999997
20
27.547296861358554
30
7.077090798139163e-16
11
111.72478521664698
21
27.269785216646987
31
7.077090798139163e-16
  0
LINE
 8
Layer0
10
111.72478521664698
20
27.269785216646987
30
7.077090798139163e-16
11
112.00229686135854
21
26.908124999999977
31
7.077090798139153e-16
  0
LINE
 8
Layer0
10
112.00229686135854
20
26.908124999999977
30
7.077090798139153e-16
11
112.17674797415727
21
26.486962757510256
31
7.077090798139163e-16
  0
LINE
 8
Layer0
10
112.17674797415727
20
4.896962757510267
30
-1.4801125723073026e-15
11
112.23624999999997
21
4.444999999999991
31
-1.414442324722352e-15
  0
LINE
 8
Layer0
10
112.23624999999997
20
4.444999999999991
30
-1.414442324722352e-15
11
112.17674797415727
21
3.9930372424897147
31
-1.360654697168605e-15
  0
LINE
 8
Layer0
10
112.17674797415727
20
3.9930372424897147
30
-1.360654697168605e-15
11
112.00229686135856
21
3.571874999999991
31
-1.3224152275755888e-15
  0
LINE
 8
Layer0
10
112.00229686135856
20
3.571874999999991
30
-1.3224152275755888e-15
11
111.72478521664698
21
3.2102147833529813
31
-1.3023298726023599e-15
  0
LINE
 8
Layer0
10
111.36312499999997
20
2.9327031386414166
30
-1.3017674159977242e-15
11
110.94196275751025
21
2.758252025842705
31
-1.320766188249783e-15
  0
LINE
 8
Layer0
10
110.94196275751025
20
2.758252025842705
30
-1.320766188249783e-15
11
110.48999999999997
21
2.698749999999991
31
-1.3580314544265151e-15
  0
LINE
 8
Layer0
10
110.48999999999997
20
2.698749999999991
30
-1.3580314544265151e-15
11
110.03803724248971
21
2.758252025842705
31
-1.4110236482217394e-15
  0
LINE
 8
Layer0
10
110.03803724248971
20
2.758252025842705
30
-1.4110236482217394e-15
11
109.61687499999996
21
2.9327031386414166
31
-1.4761314392020545e-15
  0
LINE
 8
Layer0
10
109.61687499999996
20
2.9327031386414166
30
-1.4761314392020545e-15
11
109.25521478335297
21
3.2102147833529813
31
-1.5489178390078608e-15
  0
LINE
 8
Layer0
10
109.25521478335297
20
3.2102147833529813
30
-1.5489178390078608e-15
11
108.9777031386414
21
3.571874999999991
31
-1.6244225747776077e-15
  0
LINE
 8
Layer0
10
108.9777031386414
20
3.571874999999991
30
-1.6244225747776077e-15
11
108.80325202584268
21
3.9930372424897147
31
-1.6975001235460625e-15
  0
LINE
 8
Layer0
10
108.80325202584268
20
3.9930372424897147
30
-1.6975001235460625e-15
11
108.74374999999996
21
4.444999999999991
31
-1.7631703711310121e-15
  0
LINE
 8
Layer0
10
109.25521478335297
20
5.679785216647001
30
-1.8752828232510045e-15
11
109.61687499999996
21
5.957296861358565
31
-1.87584527985564e-15
  0
LINE
 8
Layer0
10
109.61687499999996
20
5.957296861358565
30
-1.87584527985564e-15
11
110.03803724248971
21
6.131747974157277
31
-1.856846507603581e-15
  0
LINE
 8
Layer0
10
110.03803724248971
20
6.131747974157277
30
-1.856846507603581e-15
11
110.48999999999997
21
6.191249999999991
31
-1.8195812414268495e-15
  0
LINE
 8
Layer0
10
110.48999999999997
20
6.191249999999991
30
-1.8195812414268495e-15
11
110.94196275751025
21
6.131747974157277
31
-1.7665890476316247e-15
  0
LINE
 8
Layer0
10
110.94196275751025
20
6.131747974157277
30
-1.7665890476316247e-15
11
111.36312499999997
21
5.957296861358565
31
-1.7014812566513097e-15
  0
LINE
 8
Layer0
10
111.36312499999997
20
5.957296861358565
30
-1.7014812566513097e-15
11
111.72478521664698
21
5.679785216647001
31
-1.6286948568455034e-15
  0
LINE
 8
Layer0
10
112.00229686135854
20
5.318124999999991
30
-1.5531901210757569e-15
11
112.17674797415727
21
4.896962757510267
31
-1.4801125723073026e-15
  0
LINE
 8
Layer0
10
0.635
20
21.589999999999982
30
3.82386603679205e-15
11
4.1275
21
21.589999999999982
31
8.751192356088333e-16
  0
LINE
 8
Layer0
10
0.635
20
29.844999999999978
30
1.5161110121225266e-18
11
29.84499999999999
21
29.844999999999978
31
7.124108872920423e-17
  0
LINE
 8
Layer0
10
0.635
20
29.844999999999978
30
1.5161110121225266e-18
11
0.635
21
21.589999999999982
31
3.82386603679205e-15
  0
LINE
 8
Layer0
10
21.589999999999982
20
0.635
30
4.4623038629784824e-15
11
21.589999999999982
21
25.082499999999982
31
7.941437370838309e-15
  0
LINE
 8
Layer0
10
10.795
20
0.635
30
2.0109127398144037e-16
11
10.795
21
25.08249999999998
31
-1.0009087014283247e-17
  0
LINE
 8
Layer0
10
19.68499999999998
20
0.635
30
4.42236844786536e-15
11
19.68499999999998
21
25.082499999999982
31
3.5055670685403056e-15
  0
LINE
 8
Layer0
10
0.635
20
0.635
30
2.4024051699089835e-16
11
8.89
21
0.635
31
2.1397942130741363e-16
  0
LINE
 8
Layer0
10
10.795
20
0.635
30
2.0109127398144037e-16
11
19.68499999999998
21
0.635
31
4.42236844786536e-15
  0
LINE
 8
Layer0
10
21.589999999999982
20
0.635
30
4.4623038629784824e-15
11
29.84499999999999
21
0.635
31
1.003649207962475e-16
  0
LINE
 8
Layer0
10
29.84499999999999
20
10.794999999999991
30
3.815424436692808e-15
11
26.35249999999998
21
10.794999999999991
31
6.017297446365575e-15
  0
LINE
 8
Layer0
10
29.84499999999999
20
0.635
30
1.003649207962475e-16
11
29.84499999999999
21
4.7625
31
1.40357403010024e-15
  0
LINE
 8
Layer0
10
29.84499999999999
20
10.794999999999991
30
3.815424436692808e-15
11
29.84499999999999
21
29.844999999999978
31
7.124108872920423e-17
  0
LINE
 8
Layer0
10
0.6349999999999999
20
15.239999999999991
30
5.863269375346432e-15
11
0.635
21
0.635
31
2.4024051699089835e-16
  0
LINE
 8
Layer0
10
0.6349999999999999
20
15.239999999999991
30
5.863269375346432e-15
11
4.7625
21
19.68499999999999
31
1.081905148705937e-16
  0
LINE
 8
Layer0
10
25.717499999999983
20
8.889999999999992
30
5.351667926818261e-15
11
29.84499999999999
21
4.7625
31
1.40357403010024e-15
  0
LINE
 8
Layer0
10
4.7625
20
5.7785
30
5.498698066708965e-15
11
5.025460149824161
21
5.743880639509693
31
5.564575758892171e-15
  0
LINE
 8
Layer0
10
5.025460149824161
20
5.743880639509693
30
5.564575758892171e-15
11
5.270499999999999
21
5.64238181024499
31
5.624363266828262e-15
  0
LINE
 8
Layer0
10
5.270499999999999
20
5.64238181024499
30
5.624363266828262e-15
11
5.480920489685532
21
5.480920489685532
31
5.673986170654921e-15
  0
LINE
 8
Layer0
10
5.480920489685532
20
5.480920489685532
30
5.673986170654921e-15
11
5.64238181024499
21
5.2705
31
5.7100627514820865e-15
  0
LINE
 8
Layer0
10
5.64238181024499
20
5.2705
30
5.7100627514820865e-15
11
5.743880639509693
21
5.025460149824161
31
5.730134449945758e-15
  0
LINE
 8
Layer0
10
5.743880639509693
20
5.025460149824161
30
5.730134449945758e-15
11
5.7785
21
4.7625
31
5.732833412965684e-15
  0
LINE
 8
Layer0
10
5.7785
20
4.7625
30
5.732833412965684e-15
11
5.743880639509693
21
4.499539850175839
31
5.717975710672305e-15
  0
LINE
 8
Layer0
10
5.743880639509693
20
4.499539850175839
30
5.717975710672305e-15
11
5.64238181024499
21
4.2545
31
5.686573870923402e-15
  0
LINE
 8
Layer0
10
5.64238181024499
20
4.2545
30
5.686573870923402e-15
11
5.480920489685532
21
4.044079510314468
31
5.640767877203866e-15
  0
LINE
 8
Layer0
10
5.480920489685532
20
4.044079510314468
30
5.640767877203866e-15
11
5.2705
21
3.8826181897550107
31
5.5836793322877015e-15
  0
LINE
 8
Layer0
10
5.2705
20
3.8826181897550107
30
5.5836793322877015e-15
11
5.025460149824161
21
3.781119360490307
31
5.5191987261676645e-15
  0
LINE
 8
Layer0
10
5.025460149824161
20
3.781119360490307
30
5.5191987261676645e-15
11
4.7625
21
3.7465
31
5.4517203055915945e-15
  0
LINE
 8
Layer0
10
4.7625
20
3.7465
30
5.4517203055915945e-15
11
4.4995398501758395
21
3.781119360490307
31
5.385842613408388e-15
  0
LINE
 8
Layer0
10
4.4995398501758395
20
3.781119360490307
30
5.385842613408388e-15
11
4.2545
21
3.8826181897550107
31
5.326055105472297e-15
  0
LINE
 8
Layer0
10
4.2545
20
3.8826181897550107
30
5.326055105472297e-15
11
4.044079510314468
21
4.044079510314467
31
5.276432201645639e-15
  0
LINE
 8
Layer0
10
4.044079510314468
20
4.044079510314467
30
5.276432201645639e-15
11
3.8826181897550107
21
4.254499999999999
31
5.240355620818472e-15
  0
LINE
 8
Layer0
10
3.8826181897550107
20
4.254499999999999
30
5.240355620818472e-15
11
3.781119360490307
21
4.499539850175839
31
5.2202839223548024e-15
  0
LINE
 8
Layer0
10
3.781119360490307
20
4.499539850175839
30
5.2202839223548024e-15
11
3.7465
21
4.7625
31
5.217584959334876e-15
  0
LINE
 8
Layer0
10
3.7465
20
4.7625
30
5.217584959334876e-15
11
3.781119360490307
21
5.025460149824161
31
5.2324426616282545e-15
  0
LINE
 8
Layer0
10
3.781119360490307
20
5.025460149824161
30
5.2324426616282545e-15
11
3.8826181897550103
21
5.270499999999999
31
5.263844501377158e-15
  0
LINE
 8
Layer0
10
3.8826181897550103
20
5.270499999999999
30
5.263844501377158e-15
11
4.044079510314468
21
5.480920489685532
31
5.309650495096693e-15
  0
LINE
 8
Layer0
10
4.044079510314468
20
5.480920489685532
30
5.309650495096693e-15
11
4.254499999999999
21
5.64238181024499
31
5.366739040012858e-15
  0
LINE
 8
Layer0
10
4.254499999999999
20
5.64238181024499
30
5.366739040012858e-15
11
4.499539850175839
21
5.743880639509693
31
5.431219646132895e-15
  0
LINE
 8
Layer0
10
4.499539850175839
20
5.743880639509693
30
5.431219646132895e-15
11
4.7625
21
5.7785
31
5.498698066708965e-15
 0
ENDSEC
 0
EOF
