 0
SECTION
 2
ENTITIES
  0
LINE
 8
Flat node sheet
10
0.6775369342984378
20
29.686249999999976
30
6.534856719545939e-17
11
0.6458185501532215
21
29.60967504682003
31
6.534856719545939e-17
  0
LINE
 8
Flat node sheet
10
4.7625
20
23.971249999999976
30
7.564182769053479e-16
11
4.3105372424897235
21
24.03075202584269
31
8.094104707005727e-16
  0
LINE
 8
Flat node sheet
10
4.3105372424897235
20
24.03075202584269
30
8.094104707005727e-16
11
3.8893750000000002
21
24.2052031386414
31
8.745182616808869e-16
  0
LINE
 8
Flat node sheet
10
3.250203138641421
20
26.590624999999978
30
1.2535842907566089e-15
11
3.5277147833529905
21
26.952285216646988
31
1.2736696457298384e-15
  0
LINE
 8
Flat node sheet
10
3.5277147833529905
20
26.952285216646988
30
1.2736696457298384e-15
11
3.8893750000000002
21
27.22979686135855
31
1.274232102334475e-15
  0
LINE
 8
Flat node sheet
10
3.01625
20
25.717499999999976
30
1.161557193609846e-15
11
3.0757520258427142
21
26.169462757510253
31
1.2153448211635942e-15
  0
LINE
 8
Flat node sheet
10
3.0757520258427142
20
26.169462757510253
30
1.2153448211635942e-15
11
3.250203138641421
21
26.590624999999978
31
1.2535842907566089e-15
  0
LINE
 8
Flat node sheet
10
3.250203138641421
20
24.844374999999978
30
1.0228093972564408e-15
11
3.0757520258427142
21
25.265537242489703
31
1.0958869460248949e-15
  0
LINE
 8
Flat node sheet
10
3.0757520258427142
20
25.265537242489703
30
1.0958869460248949e-15
11
3.01625
21
25.717499999999976
31
1.161557193609846e-15
  0
LINE
 8
Flat node sheet
10
19.68499999999998
20
25.717499999999973
30
3.3968454692131594e-15
11
19.602824953179933
21
25.70668144984675
31
3.5055670685403056e-15
  0
LINE
 8
Flat node sheet
10
26.11717504682003
20
11.101681449846769
30
6.070792017490393e-15
11
26.034999999999982
21
11.112499999999992
31
6.079314022962772e-15
  0
LINE
 8
Flat node sheet
10
26.034999999999982
20
11.112499999999992
30
6.079314022962772e-15
11
25.952824953179935
21
11.101681449846769
31
6.0855530246923315e-15
  0
LINE
 8
Flat node sheet
10
21.814506403026705
20
25.17549359697325
30
7.889276624906107e-15
11
21.864963065701534
21
25.24124999999998
31
7.880621709692797e-15
  0
LINE
 8
Flat node sheet
10
21.864963065701534
20
25.24124999999998
30
7.880621709692797e-15
11
21.89668144984676
21
25.31782495317993
31
7.877591141056081e-15
  0
LINE
 8
Flat node sheet
10
24.48271478335297
20
3.5277147833529905
30
2.5719884490948623e-15
11
24.205203138641412
21
3.8893750000000002
31
2.4964837133251154e-15
  0
LINE
 8
Flat node sheet
10
26.16946275751026
20
6.449247974157286
30
2.3543172404710983e-15
11
26.59062499999998
21
6.274796861358575
31
2.419425031451413e-15
  0
LINE
 8
Flat node sheet
10
23.971249999999984
20
4.7625
30
2.3577359169717108e-15
11
24.030752025842695
21
5.214462757510277
31
2.3039482894179617e-15
  0
LINE
 8
Flat node sheet
10
0.635
20
29.52749999999998
30
6.534856719545939e-17
11
0.635
21
21.589999999999982
31
3.82386603679205e-15
  0
LINE
 8
Flat node sheet
10
0.9525
20
29.844999999999978
30
6.534856719545939e-17
11
29.527499999999993
21
29.842600356646283
31
1.3411578256985518e-16
  0
LINE
 8
Flat node sheet
10
29.60967504682004
20
29.831781806493062
30
1.3411578256985518e-16
11
29.527499999999993
21
29.842600356646283
31
1.3411578256985518e-16
  0
LINE
 8
Flat node sheet
10
11.1125
20
25.399999999999977
30
-1.0009087014283247e-17
11
11.101681449846778
21
25.48217504682003
31
-1.0009087014283247e-17
  0
LINE
 8
Flat node sheet
10
11.101681449846778
20
25.48217504682003
30
-1.0009087014283247e-17
11
11.069963065701563
21
25.55874999999998
31
-1.0009087014283247e-17
  0
LINE
 8
Flat node sheet
10
0.8703249531799522
20
29.834181449846756
30
6.534856719545939e-17
11
0.79375
21
29.802463065701534
31
6.534856719545939e-17
  0
LINE
 8
Flat node sheet
10
19.41003693429843
20
25.241249999999983
30
3.5055670685403056e-15
11
19.46049359697326
21
25.17549359697325
31
3.5055670685403056e-15
  0
LINE
 8
Flat node sheet
10
5.635625
20
27.22979686135855
30
1.0998680791301446e-15
11
5.997285216647009
21
26.952285216646988
31
1.0270816793243377e-15
  0
LINE
 8
Flat node sheet
10
5.997285216647009
20
26.952285216646988
30
1.0270816793243377e-15
11
6.274796861358579
21
26.590624999999978
31
9.515769435545906e-16
  0
LINE
 8
Flat node sheet
10
25.717499999999983
20
27.463749999999973
30
1.3992890252046416e-15
11
26.16946275751026
21
27.404247974157258
31
1.3992890252046416e-15
  0
LINE
 8
Flat node sheet
10
26.95228521664699
20
24.482714783352964
30
1.3992890252046412e-15
11
26.59062499999998
21
24.205203138641398
31
1.3992890252046412e-15
  0
LINE
 8
Flat node sheet
10
24.84437499999998
20
6.274796861358575
30
2.245061008247083e-15
11
25.265537242489707
21
6.449247974157286
31
2.264059780499142e-15
  0
LINE
 8
Flat node sheet
10
27.22979686135855
20
5.635625
30
2.567716167026966e-15
11
27.40424797415727
21
5.214462757510277
31
2.64079371579542e-15
  0
LINE
 8
Flat node sheet
10
25.717499999999983
20
6.50875
30
2.3013250466758734e-15
11
26.16946275751026
21
6.449247974157286
31
2.3543172404710983e-15
  0
LINE
 8
Flat node sheet
10
6.274796861358579
20
26.590624999999978
30
9.515769435545906e-16
11
6.449247974157286
21
26.169462757510253
31
8.784993947861365e-16
  0
LINE
 8
Flat node sheet
10
6.449247974157286
20
26.169462757510253
30
8.784993947861365e-16
11
6.50875
21
25.717499999999976
31
8.128291472011859e-16
  0
LINE
 8
Flat node sheet
10
10.795
20
25.717499999999976
30
-1.0009087014283247e-17
11
8.89
21
25.717499999999976
31
-1.0009087014283247e-17
  0
LINE
 8
Flat node sheet
10
4.170036934298437
20
21.748749999999983
30
8.790369397379037e-16
11
4.138318550153222
21
21.672175046820033
31
8.797146991417077e-16
  0
LINE
 8
Flat node sheet
10
4.138318550153222
20
21.672175046820033
30
8.797146991417077e-16
11
4.1275
21
21.589999999999982
31
8.751192356088333e-16
  0
LINE
 8
Flat node sheet
10
24.84437499999998
20
3.2502031386414254
30
2.6447748489006684e-15
11
24.48271478335297
21
3.5277147833529905
31
2.5719884490948623e-15
  0
LINE
 8
Flat node sheet
10
25.717499999999983
20
3.01625
30
2.762874833676208e-15
11
25.265537242489707
21
3.0757520258427142
31
2.7098826398809835e-15
  0
LINE
 8
Flat node sheet
10
5.635625
20
24.2052031386414
30
7.001542384765569e-16
11
5.214462757510277
21
24.03075202584269
31
7.191530107286158e-16
  0
LINE
 8
Flat node sheet
10
5.214462757510277
20
24.03075202584269
30
7.191530107286158e-16
11
4.7625
21
23.971249999999976
31
7.564182769053479e-16
  0
LINE
 8
Flat node sheet
10
24.205203138641412
20
3.8893750000000002
30
2.4964837133251154e-15
11
24.030752025842695
21
4.3105372424897235
31
2.4234061645566605e-15
  0
LINE
 8
Flat node sheet
10
26.16946275751026
20
3.0757520258427142
30
2.80014009985294e-15
11
25.717499999999983
21
3.01625
31
2.762874833676208e-15
  0
LINE
 8
Flat node sheet
10
3.8893750000000002
20
27.22979686135855
30
1.274232102334475e-15
11
4.3105372424897235
21
27.404247974157265
31
1.2552333300824157e-15
  0
LINE
 8
Flat node sheet
10
4.3105372424897235
20
27.404247974157265
30
1.2552333300824157e-15
11
4.7625
21
27.463749999999976
31
1.217968063905684e-15
  0
LINE
 8
Flat node sheet
10
24.84437499999998
20
27.229796861358547
30
1.3992890252046416e-15
11
25.265537242489707
21
27.404247974157258
31
1.3992890252046416e-15
  0
LINE
 8
Flat node sheet
10
25.87624999999998
20
11.06996306570155
30
6.08908384502164e-15
11
25.810493596973252
21
11.01950640302672
31
6.089665864380212e-15
  0
LINE
 8
Flat node sheet
10
11.01950640302673
20
25.175493596973247
30
-1.0009087014283247e-17
11
11.069963065701563
21
25.24124999999998
31
-1.0009087014283247e-17
  0
LINE
 8
Flat node sheet
10
5.214462757510277
20
27.404247974157265
30
1.1649758701104587e-15
11
5.635625
21
27.22979686135855
31
1.0998680791301446e-15
  0
LINE
 8
Flat node sheet
10
27.463749999999983
20
25.717499999999973
30
1.3992890252046412e-15
11
27.40424797415727
21
25.265537242489696
31
1.3992890252046407e-15
  0
LINE
 8
Flat node sheet
10
11.069963065701563
20
25.24124999999998
30
-1.0009087014283247e-17
11
11.101681449846778
21
25.317824953179926
31
-1.0009087014283247e-17
  0
LINE
 8
Flat node sheet
10
4.7625
20
21.589999999999982
30
1.081905148705937e-16
11
4.7625
21
19.68499999999999
31
1.081905148705937e-16
  0
LINE
 8
Flat node sheet
10
10.795
20
25.08249999999998
30
-1.0009087014283247e-17
11
10.877175046820048
21
25.0933185501532
31
-1.0009087014283247e-17
  0
LINE
 8
Flat node sheet
10
24.2052031386414
20
26.590624999999974
30
1.3992890252046412e-15
11
24.48271478335297
21
26.952285216646985
31
1.3992890252046416e-15
  0
LINE
 8
Flat node sheet
10
23.971249999999984
20
25.717499999999973
30
1.3992890252046416e-15
11
24.030752025842695
21
26.16946275751025
31
1.3992890252046407e-15
  0
LINE
 8
Flat node sheet
10
8.89
20
25.08249999999998
30
-1.6717083174541706e-16
11
8.89
21
0.635
31
2.1397942130741365e-16
  0
LINE
 8
Flat node sheet
10
8.615036934298438
20
25.55874999999998
30
-7.260651850493407e-17
11
8.583318550153221
21
25.48217504682003
31
-8.176261056516194e-17
  0
LINE
 8
Flat node sheet
10
11.01950640302673
20
25.624506403026707
30
-1.0009087014283247e-17
11
10.95375
21
25.674963065701537
31
-1.0009087014283247e-17
  0
LINE
 8
Flat node sheet
10
8.5725
20
25.399999999999977
30
-9.343801589690924e-17
11
8.583318550153221
21
25.317824953179926
31
-1.0683707492133549e-16
  0
LINE
 8
Flat node sheet
10
4.7625
20
27.463749999999976
30
1.217968063905684e-15
11
5.214462757510277
21
27.404247974157265
31
1.1649758701104587e-15
  0
LINE
 8
Flat node sheet
10
11.069963065701563
20
25.55874999999998
30
-1.0009087014283247e-17
11
11.01950640302673
21
25.624506403026707
31
-1.0009087014283247e-17
  0
LINE
 8
Flat node sheet
10
8.73125
20
25.12503693429842
30
-1.48034747602034e-16
11
8.807824953179953
21
25.0933185501532
31
-1.5897404900379505e-16
  0
LINE
 8
Flat node sheet
10
8.665493596973269
20
25.624506403026707
30
-6.65937122589729e-17
11
8.615036934298438
21
25.55874999999998
31
-7.260651850493407e-17
  0
LINE
 8
Flat node sheet
10
8.583318550153221
20
25.48217504682003
30
-8.176261056516194e-17
11
8.5725
21
25.399999999999977
31
-9.343801589690924e-17
  0
LINE
 8
Flat node sheet
10
29.84499999999999
20
29.525100356646284
30
1.3411578256985518e-16
11
29.83418144984677
21
29.607275403466332
31
1.3411578256985518e-16
  0
LINE
 8
Flat node sheet
10
8.807824953179953
20
25.706681449846755
30
-6.539487405397981e-17
11
8.73125
21
25.674963065701537
31
-6.413395463630671e-17
  0
LINE
 8
Flat node sheet
10
8.73125
20
25.674963065701537
30
-6.413395463630671e-17
11
8.665493596973269
21
25.624506403026707
31
-6.65937122589729e-17
  0
LINE
 8
Flat node sheet
10
19.526249999999983
20
25.67496306570153
30
3.5055670685403056e-15
11
19.46049359697326
21
25.624506403026704
31
3.5055670685403056e-15
  0
LINE
 8
Flat node sheet
10
19.46049359697326
20
25.624506403026704
30
3.5055670685403056e-15
11
19.41003693429843
21
25.55874999999998
31
3.5055670685403056e-15
  0
LINE
 8
Flat node sheet
10
27.22979686135856
20
24.844374999999975
30
1.3992890252046412e-15
11
26.95228521664699
21
24.482714783352964
31
1.3992890252046412e-15
  0
LINE
 8
Flat node sheet
10
26.95228521664699
20
26.952285216646985
30
1.3992890252046416e-15
11
27.22979686135855
21
26.590624999999974
31
1.3992890252046412e-15
  0
LINE
 8
Flat node sheet
10
27.22979686135855
20
26.590624999999974
30
1.3992890252046412e-15
11
27.40424797415727
21
26.16946275751025
31
1.3992890252046416e-15
  0
LINE
 8
Flat node sheet
10
19.602824953179933
20
25.093318550153203
30
3.5055670685403056e-15
11
19.68499999999998
21
25.082499999999982
31
3.5055670685403056e-15
  0
LINE
 8
Flat node sheet
10
21.589999999999982
20
25.082499999999982
30
7.941437370838309e-15
11
21.67217504682003
21
25.093318550153203
31
7.920757127596029e-15
  0
LINE
 8
Flat node sheet
10
0.7279935969732694
20
29.75200640302671
30
6.534856719545939e-17
11
0.6775369342984378
21
29.686249999999976
31
6.534856719545939e-17
  0
LINE
 8
Flat node sheet
10
26.35249999999998
20
10.794999999999991
30
6.017297446365575e-15
11
26.34168144984676
21
10.87717504682004
31
6.0269396756325396e-15
  0
LINE
 8
Flat node sheet
10
19.41003693429843
20
25.55874999999998
30
3.5055670685403056e-15
11
19.378318550153203
21
25.482175046820025
31
3.5055670685403056e-15
  0
LINE
 8
Flat node sheet
10
19.378318550153203
20
25.482175046820025
30
3.5055670685403056e-15
11
19.367499999999993
21
25.399999999999977
31
3.5055670685403056e-15
  0
LINE
 8
Flat node sheet
10
26.34168144984676
20
10.87717504682004
30
6.0269396756325396e-15
11
26.309963065701545
21
10.95374999999999
31
6.037868126374539e-15
  0
LINE
 8
Flat node sheet
10
26.309963065701545
20
10.95374999999999
30
6.037868126374539e-15
11
26.259506403026712
21
11.01950640302672
31
6.049338042733625e-15
  0
LINE
 8
Flat node sheet
10
26.59062499999998
20
24.205203138641398
30
1.3992890252046412e-15
11
26.16946275751026
21
24.030752025842688
31
1.3992890252046412e-15
  0
LINE
 8
Flat node sheet
10
25.265537242489707
20
27.404247974157258
30
1.3992890252046416e-15
11
25.717499999999983
21
27.463749999999973
31
1.3992890252046416e-15
  0
LINE
 8
Flat node sheet
10
24.2052031386414
20
5.635625
30
2.2657088198249475e-15
11
24.48271478335297
21
5.997285216647009
31
2.2456234648517184e-15
  0
LINE
 8
Flat node sheet
10
26.59062499999998
20
27.229796861358547
30
1.3992890252046422e-15
11
26.95228521664699
21
26.952285216646985
31
1.3992890252046416e-15
  0
LINE
 8
Flat node sheet
10
24.48271478335297
20
26.952285216646985
30
1.3992890252046416e-15
11
24.84437499999998
21
27.229796861358547
31
1.3992890252046416e-15
  0
LINE
 8
Flat node sheet
10
29.609675046820048
20
0.6467579458202645
30
2.0090837838426655e-16
11
29.68624999999999
21
0.6784763299654897
31
2.0090837838426655e-16
  0
LINE
 8
Flat node sheet
10
29.75200640302674
20
0.7289329926403167
30
2.0090837838426655e-16
11
29.802463065701552
21
0.7946893956670564
31
2.0090837838426655e-16
  0
LINE
 8
Flat node sheet
10
0.635
20
0.9525
30
3.6248027478123706e-16
11
0.6458185501532215
21
0.8703249531799482
31
3.6248027478123706e-16
  0
LINE
 8
Flat node sheet
10
29.527499999999993
20
0.6359393956670475
30
2.0090837838426655e-16
11
29.609675046820048
21
0.6467579458202645
31
2.0090837838426655e-16
  0
LINE
 8
Flat node sheet
10
0.7279935969732694
20
0.727993596973256
30
3.6248027478123706e-16
11
0.7937500000000091
21
0.677536934298438
31
3.6248027478123706e-16
  0
LINE
 8
Flat node sheet
10
29.686249999999983
20
29.800063422347847
30
1.3411578256985518e-16
11
29.60967504682004
21
29.831781806493062
31
1.3411578256985518e-16
  0
LINE
 8
Flat node sheet
10
0.79375
20
29.802463065701534
30
6.534856719545939e-17
11
0.7279935969732694
21
29.75200640302671
31
6.534856719545939e-17
  0
LINE
 8
Flat node sheet
10
0.6458185501532215
20
29.60967504682003
30
6.534856719545939e-17
11
0.635
21
29.52749999999998
31
6.534856719545939e-17
  0
LINE
 8
Flat node sheet
10
0.9525
20
29.844999999999978
30
6.534856719545939e-17
11
0.8703249531799522
21
29.834181449846756
31
6.534856719545939e-17
  0
LINE
 8
Flat node sheet
10
21.67217504682003
20
25.093318550153203
30
7.920757127596029e-15
11
21.748749999999973
21
25.125036934298425
31
7.902966068527152e-15
  0
LINE
 8
Flat node sheet
10
21.748749999999973
20
25.125036934298425
30
7.902966068527152e-15
11
21.814506403026705
21
25.17549359697325
31
7.889276624906107e-15
  0
LINE
 8
Flat node sheet
10
10.877175046820048
20
25.0933185501532
30
-1.0009087014283247e-17
11
10.95375
21
25.12503693429842
31
-1.0009087014283247e-17
  0
LINE
 8
Flat node sheet
10
25.265537242489707
20
3.0757520258427142
30
2.7098826398809835e-15
11
24.84437499999998
21
3.2502031386414254
31
2.6447748489006684e-15
  0
LINE
 8
Flat node sheet
10
24.030752025842695
20
4.3105372424897235
30
2.4234061645566605e-15
11
23.971249999999984
21
4.7625
31
2.3577359169717108e-15
  0
LINE
 8
Flat node sheet
10
26.59062499999998
20
3.2502031386414254
30
2.8191388721049985e-15
11
26.16946275751026
21
3.0757520258427142
31
2.80014009985294e-15
  0
LINE
 8
Flat node sheet
10
27.463749999999983
20
4.7625
30
2.7064639633803706e-15
11
27.40424797415727
21
4.3105372424897235
31
2.7602515909341178e-15
  0
LINE
 8
Flat node sheet
10
26.95228521664699
20
3.5277147833529905
30
2.818576415500363e-15
11
26.59062499999998
21
3.2502031386414254
31
2.8191388721049985e-15
  0
LINE
 8
Flat node sheet
10
24.030752025842695
20
5.214462757510277
30
2.3039482894179617e-15
11
24.2052031386414
21
5.635625
31
2.2657088198249475e-15
  0
LINE
 8
Flat node sheet
10
25.265537242489707
20
6.449247974157286
30
2.264059780499142e-15
11
25.717499999999983
21
6.50875
31
2.3013250466758734e-15
  0
LINE
 8
Flat node sheet
10
10.95375
20
25.12503693429842
30
-1.0009087014283247e-17
11
11.01950640302673
21
25.175493596973247
31
-1.0009087014283247e-17
  0
LINE
 8
Flat node sheet
10
21.814506403026705
20
25.624506403026704
30
7.91998665441342e-15
11
21.748749999999983
21
25.67496306570153
31
7.940578019666516e-15
  0
LINE
 8
Flat node sheet
10
8.583318550153221
20
25.317824953179926
30
-1.0683707492133549e-16
11
8.615036934298438
21
25.24124999999998
31
-1.2104666390891968e-16
  0
LINE
 8
Flat node sheet
10
21.748749999999983
20
25.67496306570153
30
7.940578019666516e-15
11
21.67217504682003
21
25.70668144984675
31
7.962707808053987e-15
  0
LINE
 8
Flat node sheet
10
21.67217504682003
20
25.70668144984675
30
7.962707808053987e-15
11
21.589999999999982
21
25.717499999999973
31
7.908791841289795e-15
  0
LINE
 8
Flat node sheet
10
4.527175046820048
20
21.89668144984676
30
8.09904533770748e-16
11
4.445
21
21.90749999999998
31
8.296736984083437e-16
  0
LINE
 8
Flat node sheet
10
4.445
20
21.90749999999998
30
8.296736984083437e-16
11
4.362824953179953
21
21.89668144984676
31
8.47579851612576e-16
  0
LINE
 8
Flat node sheet
10
11.101681449846778
20
25.317824953179926
30
-1.0009087014283247e-17
11
11.1125
21
25.399999999999977
31
-1.0009087014283247e-17
  0
LINE
 8
Flat node sheet
10
25.717499999999983
20
10.794999999999991
30
5.351667926818261e-15
11
25.717499999999983
21
8.889999999999992
31
5.351667926818261e-15
  0
LINE
 8
Flat node sheet
10
21.89668144984676
20
25.31782495317993
30
7.877591141056081e-15
11
21.907499999999974
21
25.399999999999977
31
7.8803914472403e-15
  0
LINE
 8
Flat node sheet
10
21.89668144984676
20
25.482175046820025
30
7.888831792006725e-15
11
21.864963065701534
21
25.558749999999975
31
7.902336979807856e-15
  0
LINE
 8
Flat node sheet
10
8.89
20
25.717499999999976
30
-1.0009087014283247e-17
11
8.807824953179953
21
25.706681449846755
31
-6.539487405397981e-17
  0
LINE
 8
Flat node sheet
10
26.259506403026712
20
11.01950640302672
30
6.049338042733625e-15
11
26.193749999999984
21
11.06996306570155
31
6.060567768864857e-15
  0
LINE
 8
Flat node sheet
10
26.193749999999984
20
11.06996306570155
30
6.060567768864857e-15
11
26.11717504682003
21
11.101681449846769
31
6.070792017490393e-15
  0
LINE
 8
Flat node sheet
10
25.728318550153205
20
10.87717504682004
30
6.082028504481066e-15
11
25.717499999999983
21
10.794999999999991
31
5.351667926818261e-15
  0
LINE
 8
Flat node sheet
10
27.40424797415727
20
25.265537242489696
30
1.3992890252046407e-15
11
27.22979686135856
21
24.844374999999975
31
1.3992890252046412e-15
  0
LINE
 8
Flat node sheet
10
27.40424797415727
20
26.16946275751025
30
1.3992890252046416e-15
11
27.463749999999983
21
25.717499999999973
31
1.3992890252046412e-15
  0
LINE
 8
Flat node sheet
10
19.367499999999993
20
25.399999999999977
30
3.5055670685403056e-15
11
19.378318550153203
21
25.31782495317993
31
3.5055670685403056e-15
  0
LINE
 8
Flat node sheet
10
19.378318550153203
20
25.31782495317993
30
3.5055670685403056e-15
11
19.41003693429843
21
25.241249999999983
31
3.5055670685403056e-15
  0
LINE
 8
Flat node sheet
10
21.589999999999982
20
25.717499999999973
30
7.908791841289795e-15
11
19.68499999999998
21
25.717499999999973
31
3.3968454692131594e-15
  0
LINE
 8
Flat node sheet
10
6.50875
20
25.717499999999976
30
8.128291472011859e-16
11
6.449247974157286
21
25.265537242489703
31
7.590415196474378e-16
  0
LINE
 8
Flat node sheet
10
6.449247974157286
20
25.265537242489703
30
7.590415196474378e-16
11
6.274796861358579
21
24.844374999999978
31
7.208020500544227e-16
  0
LINE
 8
Flat node sheet
10
24.48271478335297
20
24.482714783352964
30
1.3992890252046412e-15
11
24.205203138641412
21
24.844374999999975
31
1.3992890252046407e-15
  0
LINE
 8
Flat node sheet
10
26.16946275751026
20
27.404247974157258
30
1.3992890252046416e-15
11
26.59062499999998
21
27.229796861358547
31
1.3992890252046422e-15
  0
LINE
 8
Flat node sheet
10
27.40424797415727
20
4.3105372424897235
30
2.7602515909341178e-15
11
27.22979686135856
21
3.8893750000000002
31
2.7984910605271343e-15
  0
LINE
 8
Flat node sheet
10
27.40424797415727
20
5.214462757510277
30
2.64079371579542e-15
11
27.463749999999983
21
4.7625
31
2.7064639633803706e-15
  0
LINE
 8
Flat node sheet
10
26.59062499999998
20
6.274796861358575
30
2.419425031451413e-15
11
26.95228521664699
21
5.997285216647009
31
2.4922114312572195e-15
  0
LINE
 8
Flat node sheet
10
24.48271478335297
20
5.997285216647009
30
2.2456234648517184e-15
11
24.84437499999998
21
6.274796861358575
31
2.245061008247083e-15
  0
LINE
 8
Flat node sheet
10
0.635
20
21.589999999999982
30
3.82386603679205e-15
11
4.1275
21
21.589999999999982
31
8.751192356088333e-16
  0
LINE
 8
Flat node sheet
10
21.589999999999982
20
0.635
30
4.462303862978483e-15
11
21.589999999999982
21
25.082499999999982
31
7.941437370838309e-15
  0
LINE
 8
Flat node sheet
10
10.795
20
0.635
30
2.0109127398144035e-16
11
10.795
21
25.08249999999998
31
-1.0009087014283247e-17
  0
LINE
 8
Flat node sheet
10
19.68499999999998
20
0.635
30
4.422368447865361e-15
11
19.68499999999998
21
25.082499999999982
31
3.5055670685403056e-15
  0
LINE
 8
Flat node sheet
10
10.795
20
0.635
30
2.0109127398144035e-16
11
19.68499999999998
21
0.635
31
4.422368447865361e-15
  0
LINE
 8
Flat node sheet
10
21.589999999999982
20
0.635
30
4.462303862978483e-15
11
29.527499999999993
21
0.6359393956670475
31
2.0090837838426655e-16
  0
LINE
 8
Flat node sheet
10
29.84499999999999
20
10.794999999999991
30
3.815424436692808e-15
11
26.35249999999998
21
10.794999999999991
31
6.017297446365575e-15
  0
LINE
 8
Flat node sheet
10
29.84499999999999
20
10.794999999999991
30
3.815424436692808e-15
11
29.84499999999999
21
29.525100356646284
31
1.3411578256985518e-16
  0
LINE
 8
Flat node sheet
10
0.635
20
15.239999999999991
30
5.863269375346432e-15
11
0.635
21
0.9525
31
3.6248027478123706e-16
  0
LINE
 8
Flat node sheet
10
0.635
20
15.239999999999991
30
5.863269375346432e-15
11
4.7625
21
19.68499999999999
31
1.081905148705937e-16
  0
LINE
 8
Flat node sheet
10
25.717499999999983
20
8.889999999999992
30
5.351667926818261e-15
11
29.84499999999999
21
4.7625
31
1.40357403010024e-15
  0
LINE
 8
Flat node sheet
10
0.6458185501532215
20
0.8703249531799482
30
3.6248027478123706e-16
11
0.6775369342984467
21
0.7937500000000046
31
3.6248027478123706e-16
  0
LINE
 8
Flat node sheet
10
0.6775369342984467
20
0.7937500000000046
30
3.6248027478123706e-16
11
0.7279935969732694
21
0.727993596973256
31
3.6248027478123706e-16
  0
LINE
 8
Flat node sheet
10
0.7937500000000091
20
0.677536934298438
30
3.6248027478123706e-16
11
0.8703249531799522
21
0.6458185501532173
31
3.6248027478123706e-16
  0
LINE
 8
Flat node sheet
10
0.8703249531799522
20
0.6458185501532173
30
3.6248027478123706e-16
11
0.9525
21
0.6350000000000003
31
3.6248027478123706e-16
  0
LINE
 8
Flat node sheet
10
0.9525
20
0.6350000000000003
30
3.6248027478123706e-16
11
8.89
21
0.635
31
2.1397942130741365e-16
  0
LINE
 8
Flat node sheet
10
8.807824953179953
20
25.0933185501532
30
-1.5897404900379505e-16
11
8.89
21
25.08249999999998
31
-1.6717083174541706e-16
  0
LINE
 8
Flat node sheet
10
8.665493596973269
20
25.175493596973247
30
-1.3509842285261358e-16
11
8.73125
21
25.12503693429842
31
-1.48034747602034e-16
  0
LINE
 8
Flat node sheet
10
8.615036934298438
20
25.24124999999998
30
-1.2104666390891968e-16
11
8.665493596973269
21
25.175493596973247
31
-1.3509842285261358e-16
  0
LINE
 8
Flat node sheet
10
10.877175046820048
20
25.706681449846755
30
-1.0009087014283247e-17
11
10.795
21
25.717499999999976
31
-1.0009087014283247e-17
  0
LINE
 8
Flat node sheet
10
10.95375
20
25.674963065701537
30
-1.0009087014283247e-17
11
10.877175046820048
21
25.706681449846755
31
-1.0009087014283247e-17
  0
LINE
 8
Flat node sheet
10
19.526249999999983
20
25.125036934298425
30
3.5055670685403056e-15
11
19.602824953179933
21
25.093318550153203
31
3.5055670685403056e-15
  0
LINE
 8
Flat node sheet
10
19.46049359697326
20
25.17549359697325
30
3.5055670685403056e-15
11
19.526249999999983
21
25.125036934298425
31
3.5055670685403056e-15
  0
LINE
 8
Flat node sheet
10
19.602824953179933
20
25.70668144984675
30
3.5055670685403056e-15
11
19.526249999999983
21
25.67496306570153
31
3.5055670685403056e-15
  0
LINE
 8
Flat node sheet
10
21.864963065701534
20
25.558749999999975
30
7.902336979807856e-15
11
21.814506403026705
21
25.624506403026704
31
7.91998665441342e-15
  0
LINE
 8
Flat node sheet
10
21.907499999999974
20
25.399999999999977
30
7.8803914472403e-15
11
21.89668144984676
21
25.482175046820025
31
7.888831792006725e-15
  0
LINE
 8
Flat node sheet
10
29.68624999999999
20
0.6784763299654897
30
2.0090837838426655e-16
11
29.75200640302674
21
0.7289329926403167
31
2.0090837838426655e-16
  0
LINE
 8
Flat node sheet
10
29.802463065701552
20
0.7946893956670564
30
2.0090837838426655e-16
11
29.834181449846778
21
0.8712643488469951
31
2.0090837838426655e-16
  0
LINE
 8
Flat node sheet
10
29.834181449846778
20
0.8712643488469951
30
2.0090837838426655e-16
11
29.84499999999999
21
0.9534393956670429
31
2.0090837838426655e-16
  0
LINE
 8
Flat node sheet
10
29.84499999999999
20
0.9534393956670429
30
2.0090837838426655e-16
11
29.84499999999999
21
4.7625
31
1.40357403010024e-15
  0
LINE
 8
Flat node sheet
10
25.76003693429842
20
10.95374999999999
30
6.087259419110592e-15
11
25.728318550153205
21
10.87717504682004
31
6.082028504481066e-15
  0
LINE
 8
Flat node sheet
10
25.810493596973252
20
11.01950640302672
30
6.089665864380212e-15
11
25.76003693429842
21
10.95374999999999
31
6.087259419110592e-15
  0
LINE
 8
Flat node sheet
10
25.952824953179935
20
11.101681449846769
30
6.0855530246923315e-15
11
25.87624999999998
21
11.06996306570155
31
6.08908384502164e-15
  0
LINE
 8
Flat node sheet
10
29.83418144984677
20
29.607275403466332
30
1.3411578256985518e-16
11
29.802463065701552
21
29.683850356646282
31
1.3411578256985518e-16
  0
LINE
 8
Flat node sheet
10
29.802463065701552
20
29.683850356646282
30
1.3411578256985518e-16
11
29.752006403026712
21
29.749606759673018
31
1.3411578256985518e-16
  0
LINE
 8
Flat node sheet
10
29.752006403026712
20
29.749606759673018
30
1.3411578256985518e-16
11
29.686249999999983
21
29.800063422347847
31
1.3411578256985518e-16
  0
LINE
 8
Flat node sheet
10
4.220493596973269
20
21.814506403026712
30
8.7313214558074e-16
11
4.170036934298437
21
21.748749999999983
31
8.790369397379037e-16
  0
LINE
 8
Flat node sheet
10
4.28625
20
21.86496306570154
30
8.624027186338937e-16
11
4.220493596973269
21
21.814506403026712
31
8.7313214558074e-16
  0
LINE
 8
Flat node sheet
10
4.362824953179953
20
21.89668144984676
30
8.47579851612576e-16
11
4.28625
21
21.86496306570154
31
8.624027186338937e-16
  0
LINE
 8
Flat node sheet
10
4.60375
20
21.86496306570154
30
7.896195935997517e-16
11
4.527175046820048
21
21.89668144984676
31
8.09904533770748e-16
  0
LINE
 8
Flat node sheet
10
4.66950640302673
20
21.814506403026712
30
7.702012630455597e-16
11
4.60375
21
21.86496306570154
31
7.896195935997517e-16
  0
LINE
 8
Flat node sheet
10
4.719963065701562
20
21.748749999999983
30
7.529728692451315e-16
11
4.66950640302673
21
21.814506403026712
31
7.702012630455597e-16
  0
LINE
 8
Flat node sheet
10
4.751681449846778
20
21.672175046820033
30
7.391084987646994e-16
11
4.719963065701562
21
21.748749999999983
31
7.529728692451315e-16
  0
LINE
 8
Flat node sheet
10
4.7625
20
21.589999999999982
30
1.081905148705937e-16
11
4.751681449846778
21
21.672175046820033
31
7.391084987646994e-16
  0
LINE
 8
Flat node sheet
10
27.22979686135856
20
3.8893750000000002
30
2.7984910605271343e-15
11
26.95228521664699
21
3.5277147833529905
31
2.818576415500363e-15
  0
LINE
 8
Flat node sheet
10
26.95228521664699
20
5.997285216647009
30
2.4922114312572195e-15
11
27.22979686135855
21
5.635625
31
2.567716167026966e-15
  0
LINE
 8
Flat node sheet
10
26.16946275751026
20
24.030752025842688
30
1.3992890252046412e-15
11
25.717499999999983
21
23.971249999999973
31
1.3992890252046407e-15
  0
LINE
 8
Flat node sheet
10
25.717499999999983
20
23.971249999999973
30
1.3992890252046407e-15
11
25.265537242489707
21
24.030752025842688
31
1.3992890252046412e-15
  0
LINE
 8
Flat node sheet
10
25.265537242489707
20
24.030752025842688
30
1.3992890252046412e-15
11
24.84437499999998
21
24.205203138641398
31
1.3992890252046407e-15
  0
LINE
 8
Flat node sheet
10
24.84437499999998
20
24.205203138641398
30
1.3992890252046407e-15
11
24.48271478335297
21
24.482714783352964
31
1.3992890252046412e-15
  0
LINE
 8
Flat node sheet
10
24.205203138641412
20
24.844374999999975
30
1.3992890252046407e-15
11
24.030752025842695
21
25.265537242489696
31
1.3992890252046407e-15
  0
LINE
 8
Flat node sheet
10
24.030752025842695
20
25.265537242489696
30
1.3992890252046407e-15
11
23.971249999999984
21
25.717499999999973
31
1.3992890252046416e-15
  0
LINE
 8
Flat node sheet
10
24.030752025842695
20
26.16946275751025
30
1.3992890252046407e-15
11
24.2052031386414
21
26.590624999999974
31
1.3992890252046412e-15
  0
LINE
 8
Flat node sheet
10
6.274796861358579
20
24.844374999999978
30
7.208020500544227e-16
11
5.997285216647009
21
24.482714783352968
31
7.007166950811935e-16
  0
LINE
 8
Flat node sheet
10
5.997285216647009
20
24.482714783352968
30
7.007166950811935e-16
11
5.635625
21
24.2052031386414
31
7.001542384765569e-16
  0
LINE
 8
Flat node sheet
10
3.8893750000000002
20
24.2052031386414
30
8.745182616808869e-16
11
3.5277147833529905
21
24.482714783352968
31
9.47304661486694e-16
  0
LINE
 8
Flat node sheet
10
3.5277147833529905
20
24.482714783352968
30
9.47304661486694e-16
11
3.250203138641421
21
24.844374999999978
31
1.0228093972564408e-15
  0
LINE
 8
Flat node sheet
10
2.689789850175838
20
3.9341306395096933
30
1.2500967597404168e-14
11
2.9527500000000035
21
3.96875
31
1.2568446017980238e-14
  0
LINE
 8
Flat node sheet
10
2.9527500000000035
20
3.96875
30
1.2568446017980238e-14
11
3.2157101498241603
21
3.9341306395096933
31
1.2634323710163444e-14
  0
LINE
 8
Flat node sheet
10
3.2157101498241603
20
3.9341306395096933
30
1.2634323710163444e-14
11
3.4607500000000018
21
3.83263181024499
31
1.2694111218099534e-14
  0
LINE
 8
Flat node sheet
10
3.4607500000000018
20
3.83263181024499
30
1.2694111218099534e-14
11
3.6711704896855344
21
3.671170489685532
31
1.2743734121926193e-14
  0
LINE
 8
Flat node sheet
10
3.6711704896855344
20
3.671170489685532
30
1.2743734121926193e-14
11
3.8326318102449886
21
3.460750000000001
31
1.2779810702753359e-14
  0
LINE
 8
Flat node sheet
10
3.8326318102449886
20
3.460750000000001
30
1.2779810702753359e-14
11
3.934130639509691
21
3.215710149824161
31
1.279988240121703e-14
  0
LINE
 8
Flat node sheet
10
3.934130639509691
20
3.215710149824161
30
1.279988240121703e-14
11
3.96875
21
2.9527500000000004
31
1.2802581364236957e-14
  0
LINE
 8
Flat node sheet
10
3.96875
20
2.9527500000000004
30
1.2802581364236957e-14
11
3.934130639509691
21
2.6897898501758393
31
1.2787723661943578e-14
  0
LINE
 8
Flat node sheet
10
3.934130639509691
20
2.6897898501758393
30
1.2787723661943578e-14
11
3.8326318102449886
21
2.444750000000001
31
1.2756321822194674e-14
  0
LINE
 8
Flat node sheet
10
3.8326318102449886
20
2.444750000000001
30
1.2756321822194674e-14
11
3.6711704896855344
21
2.2343295103144682
31
1.2710515828475139e-14
  0
LINE
 8
Flat node sheet
10
3.6711704896855344
20
2.2343295103144682
30
1.2710515828475139e-14
11
3.4607500000000018
21
2.072868189755011
31
1.2653427283558974e-14
  0
LINE
 8
Flat node sheet
10
3.4607500000000018
20
2.072868189755011
30
1.2653427283558974e-14
11
3.2157101498241603
21
1.971369360490307
31
1.2588946677438938e-14
  0
LINE
 8
Flat node sheet
10
3.2157101498241603
20
1.971369360490307
30
1.2588946677438938e-14
11
2.9527500000000035
21
1.9367500000000004
31
1.2521468256862868e-14
  0
LINE
 8
Flat node sheet
10
2.9527500000000035
20
1.9367500000000004
30
1.2521468256862868e-14
11
2.689789850175838
21
1.971369360490307
31
1.2455590564679662e-14
  0
LINE
 8
Flat node sheet
10
2.689789850175838
20
1.971369360490307
30
1.2455590564679662e-14
11
2.4447499999999964
21
2.072868189755011
31
1.2395803056743569e-14
  0
LINE
 8
Flat node sheet
10
2.4447499999999964
20
2.072868189755011
30
1.2395803056743569e-14
11
2.234329510314464
21
2.2343295103144682
31
1.2346180152916912e-14
  0
LINE
 8
Flat node sheet
10
2.234329510314464
20
2.2343295103144682
30
1.2346180152916912e-14
11
2.0728681897550096
21
2.44475
31
1.2310103572089747e-14
  0
LINE
 8
Flat node sheet
10
2.0728681897550096
20
2.44475
30
1.2310103572089747e-14
11
1.971369360490307
21
2.689789850175838
31
1.2290031873626076e-14
  0
LINE
 8
Flat node sheet
10
1.971369360490307
20
2.689789850175838
30
1.2290031873626076e-14
11
1.9367499999999982
21
2.9527500000000004
31
1.2287332910606149e-14
  0
LINE
 8
Flat node sheet
10
1.9367499999999982
20
2.9527500000000004
30
1.2287332910606149e-14
11
1.971369360490307
21
3.2157101498241607
31
1.2302190612899528e-14
  0
LINE
 8
Flat node sheet
10
1.971369360490307
20
3.2157101498241607
30
1.2302190612899528e-14
11
2.0728681897550096
21
3.4607499999999995
31
1.233359245264843e-14
  0
LINE
 8
Flat node sheet
10
2.0728681897550096
20
3.4607499999999995
30
1.233359245264843e-14
11
2.234329510314464
21
3.671170489685532
31
1.2379398446367967e-14
  0
LINE
 8
Flat node sheet
10
2.234329510314464
20
3.671170489685532
30
1.2379398446367967e-14
11
2.4447499999999964
21
3.83263181024499
31
1.2436486991284131e-14
  0
LINE
 8
Flat node sheet
10
2.4447499999999964
20
3.83263181024499
30
1.2436486991284131e-14
11
2.689789850175838
21
3.9341306395096933
31
1.2500967597404168e-14
 0
ENDSEC
 0
EOF
